<svg width="121" height="130" viewBox="0 0 121 130" fill="none" xmlns="http://www.w3.org/2000/svg">
<path d="M39.084 47.6641C42.1895 47.6641 44.7773 49.8418 44.7773 54.7832V54.8027C44.7773 59.4609 42.6191 62.2441 39.0254 62.2441C36.418 62.2441 34.4648 60.7402 34.0254 58.6113L34.0059 58.5039H36.5059L36.5352 58.5918C36.916 59.5586 37.7754 60.1836 39.0352 60.1836C41.3008 60.1836 42.248 58.0156 42.3457 55.3496C42.3555 55.2031 42.3652 55.0566 42.3652 54.9004H42.3066C41.75 56.1895 40.3438 57.166 38.4395 57.166C35.7246 57.166 33.8105 55.2129 33.8105 52.5664V52.5469C33.8105 49.7051 36.0469 47.6641 39.084 47.6641ZM39.084 55.2227C40.6953 55.2227 41.9258 54.0898 41.9258 52.5176V52.5078C41.9258 50.9453 40.6953 49.7246 39.1133 49.7246C37.5508 49.7246 36.291 50.9355 36.291 52.459V52.4785C36.291 54.0801 37.4824 55.2227 39.084 55.2227ZM45.5488 64.8809L46.3203 59.7051H48.6738L47.248 64.8809H45.5488ZM56.0762 47.6641C59.1816 47.6641 61.7695 49.8418 61.7695 54.7832V54.8027C61.7695 59.4609 59.6113 62.2441 56.0176 62.2441C53.4102 62.2441 51.457 60.7402 51.0176 58.6113L50.998 58.5039H53.498L53.5273 58.5918C53.9082 59.5586 54.7676 60.1836 56.0273 60.1836C58.293 60.1836 59.2402 58.0156 59.3379 55.3496C59.3477 55.2031 59.3574 55.0566 59.3574 54.9004H59.2988C58.7422 56.1895 57.3359 57.166 55.4316 57.166C52.7168 57.166 50.8027 55.2129 50.8027 52.5664V52.5469C50.8027 49.7051 53.0391 47.6641 56.0762 47.6641ZM56.0762 55.2227C57.6875 55.2227 58.918 54.0898 58.918 52.5176V52.5078C58.918 50.9453 57.6875 49.7246 56.1055 49.7246C54.543 49.7246 53.2832 50.9355 53.2832 52.459V52.4785C53.2832 54.0801 54.4746 55.2227 56.0762 55.2227ZM68.8691 47.6641C71.9746 47.6641 74.5625 49.8418 74.5625 54.7832V54.8027C74.5625 59.4609 72.4043 62.2441 68.8105 62.2441C66.2031 62.2441 64.25 60.7402 63.8105 58.6113L63.791 58.5039H66.291L66.3203 58.5918C66.7012 59.5586 67.5605 60.1836 68.8203 60.1836C71.0859 60.1836 72.0332 58.0156 72.1309 55.3496C72.1406 55.2031 72.1504 55.0566 72.1504 54.9004H72.0918C71.5352 56.1895 70.1289 57.166 68.2246 57.166C65.5098 57.166 63.5957 55.2129 63.5957 52.5664V52.5469C63.5957 49.7051 65.832 47.6641 68.8691 47.6641ZM68.8691 55.2227C70.4805 55.2227 71.7109 54.0898 71.7109 52.5176V52.5078C71.7109 50.9453 70.4805 49.7246 68.8984 49.7246C67.3359 49.7246 66.0762 50.9355 66.0762 52.459V52.4785C66.0762 54.0801 67.2676 55.2227 68.8691 55.2227ZM81.6621 47.6641C84.7676 47.6641 87.3555 49.8418 87.3555 54.7832V54.8027C87.3555 59.4609 85.1973 62.2441 81.6035 62.2441C78.9961 62.2441 77.043 60.7402 76.6035 58.6113L76.584 58.5039H79.084L79.1133 58.5918C79.4941 59.5586 80.3535 60.1836 81.6133 60.1836C83.8789 60.1836 84.8262 58.0156 84.9238 55.3496C84.9336 55.2031 84.9434 55.0566 84.9434 54.9004H84.8848C84.3281 56.1895 82.9219 57.166 81.0176 57.166C78.3027 57.166 76.3887 55.2129 76.3887 52.5664V52.5469C76.3887 49.7051 78.625 47.6641 81.6621 47.6641ZM81.6621 55.2227C83.2734 55.2227 84.5039 54.0898 84.5039 52.5176V52.5078C84.5039 50.9453 83.2734 49.7246 81.6914 49.7246C80.1289 49.7246 78.8691 50.9355 78.8691 52.459V52.4785C78.8691 54.0801 80.0605 55.2227 81.6621 55.2227Z" fill="#DADADD"/>
<g clip-path="url(#clip0_4_328)">
<path d="M44.0144 82H50.9856C51.8305 82 52.3037 81.0958 51.7818 80.4789L48.2962 76.3593C47.8908 75.8802 47.1092 75.8802 46.7038 76.3593L43.2182 80.4789C42.6963 81.0958 43.1695 82 44.0144 82Z" fill="#039C86"/>
</g>
<path d="M58.4824 83V75.8984H58.3828L56.2559 77.416V76.127L58.4824 74.5449H59.7949V83H58.4824ZM65.1738 83.2051C63.2227 83.2051 62.0508 81.5 62.0508 78.7754V78.7637C62.0508 76.0391 63.2227 74.3398 65.1738 74.3398C67.1191 74.3398 68.2969 76.0391 68.2969 78.7637V78.7754C68.2969 81.5 67.1191 83.2051 65.1738 83.2051ZM65.1738 82.1152C66.3047 82.1152 66.9727 80.8438 66.9727 78.7754V78.7637C66.9727 76.6953 66.3047 75.4355 65.1738 75.4355C64.0371 75.4355 63.375 76.6953 63.375 78.7637V78.7754C63.375 80.8438 64.0371 82.1152 65.1738 82.1152ZM71.6719 79.0625C70.5352 79.0625 69.8438 78.166 69.8438 76.7422V76.7363C69.8438 75.3125 70.5352 74.4277 71.6719 74.4277C72.8086 74.4277 73.5 75.3125 73.5 76.7363V76.7422C73.5 78.166 72.8086 79.0625 71.6719 79.0625ZM72.5449 83H71.4492L77.1797 74.5449H78.2754L72.5449 83ZM71.6719 78.2773C72.2285 78.2773 72.5508 77.709 72.5508 76.7422V76.7363C72.5508 75.7754 72.2285 75.2129 71.6719 75.2129C71.1152 75.2129 70.7988 75.7754 70.7988 76.7363V76.7422C70.7988 77.709 71.1152 78.2773 71.6719 78.2773ZM78.0469 83.1172C76.9102 83.1172 76.2188 82.2266 76.2188 80.8027V80.7969C76.2188 79.373 76.9102 78.4824 78.0469 78.4824C79.1836 78.4824 79.875 79.373 79.875 80.7969V80.8027C79.875 82.2266 79.1836 83.1172 78.0469 83.1172ZM78.0469 82.332C78.6035 82.332 78.9199 81.7637 78.9199 80.8027V80.7969C78.9199 79.8301 78.6035 79.2676 78.0469 79.2676C77.4902 79.2676 77.1738 79.8301 77.1738 80.7969V80.8027C77.1738 81.7637 77.4902 82.332 78.0469 82.332Z" fill="#039C86"/>
<path d="M12.8686 37.5C11.912 36.9477 11.5813 35.7224 12.1668 34.7858C17.1059 26.8847 23.9129 20.3056 32 15.6366C40.0871 10.9675 49.1882 8.36192 58.5003 8.03508C59.6042 7.99634 60.5 8.89543 60.5 10L60.5 19.68C60.5 20.7846 59.604 21.6752 58.5006 21.7262C51.5908 22.0454 44.8473 24.0155 38.84 27.4838C32.8327 30.9521 27.7548 35.8071 24.0234 41.6316C23.4276 42.5617 22.2083 42.8923 21.2517 42.34L12.8686 37.5Z" fill="url(#paint0_linear_4_328)" stroke="#1F1F25" stroke-width="2"/>
<path d="M21.6091 103.891C20.8281 104.672 19.5588 104.674 18.8056 103.866C10.7276 95.2006 5.53829 84.2183 3.98764 72.44C2.437 60.6617 4.60705 48.7105 10.167 38.2494C10.6854 37.2741 11.912 36.9477 12.8686 37.5L21.2517 42.34C22.2083 42.8923 22.5316 44.1136 22.024 45.0946C17.9636 52.9429 16.3931 61.862 17.5506 70.6544C18.7081 79.4468 22.5336 87.6555 28.4869 94.1854C29.2311 95.0017 29.235 96.265 28.4539 97.0461L21.6091 103.891Z" fill="url(#paint1_linear_4_328)" stroke="#1F1F25" stroke-width="2"/>
<path d="M115.5 65C116.605 65 117.504 65.8958 117.465 66.9997C117.094 77.5729 113.786 87.8489 107.894 96.6675C101.631 106.041 92.7283 113.347 82.313 117.661C71.8976 121.975 60.4368 123.104 49.3799 120.905C38.9776 118.836 29.3725 113.908 21.6337 106.694C20.8257 105.941 20.8281 104.672 21.6091 103.891L28.4539 97.0461C29.235 96.265 30.4983 96.2689 31.3146 97.013C37.134 102.319 44.3004 105.946 52.0487 107.488C60.4519 109.159 69.1621 108.301 77.0778 105.022C84.9935 101.744 91.7592 96.1912 96.5193 89.0673C100.908 82.4986 103.41 74.8659 103.774 66.9994C103.825 65.896 104.715 65 105.82 65H115.5Z" fill="url(#paint2_linear_4_328)" stroke="#1F1F25" stroke-width="2"/>
<path d="M60.5 10C60.5 8.89543 61.3957 7.99634 62.4996 8.03508C69.3028 8.27388 76.0138 9.72968 82.313 12.3389C89.2285 15.2034 95.5122 19.402 100.805 24.6949C106.098 29.9879 110.297 36.2715 113.161 43.187C115.77 49.4862 117.226 56.1972 117.465 63.0004C117.504 64.1043 116.605 65 115.5 65L105.82 65C104.715 65 103.825 64.1041 103.774 63.0007C103.543 57.9946 102.444 53.0614 100.522 48.4222C98.3454 43.1663 95.1545 38.3908 91.1319 34.3681C87.1092 30.3455 82.3337 27.1546 77.0779 24.9775C72.4386 23.0559 67.5054 21.9574 62.4993 21.7262C61.3959 21.6752 60.5 20.7846 60.5 19.68V10Z" fill="url(#paint3_linear_4_328)" stroke="#1F1F25" stroke-width="2"/>
<defs>
<linearGradient id="paint0_linear_4_328" x1="60.5" y1="8" x2="60.5" y2="122" gradientUnits="userSpaceOnUse">
<stop stop-color="#4C9AAF"/>
<stop offset="1" stop-color="#33798C"/>
</linearGradient>
<linearGradient id="paint1_linear_4_328" x1="60.5" y1="8" x2="60.5" y2="122" gradientUnits="userSpaceOnUse">
<stop stop-color="#DA62C4"/>
<stop offset="1" stop-color="#B1489E"/>
</linearGradient>
<linearGradient id="paint2_linear_4_328" x1="60.5" y1="8" x2="60.5" y2="122" gradientUnits="userSpaceOnUse">
<stop stop-color="#4B92E5"/>
<stop offset="1" stop-color="#3672BB"/>
</linearGradient>
<linearGradient id="paint3_linear_4_328" x1="60.5" y1="8" x2="60.5" y2="122" gradientUnits="userSpaceOnUse">
<stop stop-color="#C89EF1"/>
<stop offset="1" stop-color="#B176E2"/>
</linearGradient>
<clipPath id="clip0_4_328">
<rect width="9" height="6" fill="white" transform="translate(43 76)"/>
</clipPath>
</defs>
</svg>
