<svg width="335" height="223" viewBox="0 0 335 223" fill="none" xmlns="http://www.w3.org/2000/svg">
<rect width="335" height="217" transform="translate(0 6)" fill="#010D2D"/>
<path d="M42.4333 14H293.683" stroke="#43434E"/>
<path d="M293.683 14H309.683" stroke="#43434E"/>
<rect width="19" height="16" transform="translate(309.683 6)" fill="#1F1F25"/>
<path d="M312.627 18V17.2734L315.486 14.1797C316.564 13.0137 316.881 12.5742 316.881 11.8359V11.8242C316.881 10.9336 316.277 10.2656 315.281 10.2656C314.267 10.2656 313.593 10.9277 313.593 11.9238L313.588 11.9355L312.58 11.9297L312.568 11.9238C312.574 10.4238 313.734 9.3457 315.351 9.3457C316.828 9.3457 317.959 10.3477 317.959 11.7129V11.7246C317.959 12.6914 317.543 13.3945 316.013 14.9707L314.092 16.957V17.0508H318.099V18H312.627ZM322.699 18.1992C320.83 18.1992 319.717 16.4941 319.717 13.7754V13.7637C319.717 11.0449 320.83 9.3457 322.699 9.3457C324.568 9.3457 325.693 11.0449 325.693 13.7637V13.7754C325.693 16.4941 324.568 18.1992 322.699 18.1992ZM322.699 17.2793C323.912 17.2793 324.633 15.9316 324.633 13.7754V13.7637C324.633 11.6074 323.912 10.2715 322.699 10.2715C321.486 10.2715 320.777 11.6074 320.777 13.7637V13.7754C320.777 15.9316 321.486 17.2793 322.699 17.2793Z" fill="#9D9DA5"/>
<path d="M328.683 14H335" stroke="#43434E"/>
<path d="M26.4333 14H42.4333" stroke="#43434E"/>
<rect width="19" height="16" transform="translate(7.43333 6)" fill="#1F1F25"/>
<path d="M10.5759 18V17.2734L13.4353 14.1797C14.5134 13.0137 14.8298 12.5742 14.8298 11.8359V11.8242C14.8298 10.9336 14.2263 10.2656 13.2302 10.2656C12.2165 10.2656 11.5427 10.9277 11.5427 11.9238L11.5368 11.9355L10.529 11.9297L10.5173 11.9238C10.5232 10.4238 11.6833 9.3457 13.3005 9.3457C14.7771 9.3457 15.9079 10.3477 15.9079 11.7129V11.7246C15.9079 12.6914 15.4919 13.3945 13.9626 14.9707L12.0408 16.957V17.0508H16.0486V18H10.5759ZM20.6482 18.1992C18.779 18.1992 17.6658 16.4941 17.6658 13.7754V13.7637C17.6658 11.0449 18.779 9.3457 20.6482 9.3457C22.5173 9.3457 23.6423 11.0449 23.6423 13.7637V13.7754C23.6423 16.4941 22.5173 18.1992 20.6482 18.1992ZM20.6482 17.2793C21.8611 17.2793 22.5818 15.9316 22.5818 13.7754V13.7637C22.5818 11.6074 21.8611 10.2715 20.6482 10.2715C19.4353 10.2715 18.7263 11.6074 18.7263 13.7637V13.7754C18.7263 15.9316 19.4353 17.2793 20.6482 17.2793Z" fill="#9D9DA5"/>
<path d="M0 14H7.43333" stroke="#43434E"/>
<path d="M42.4333 102.5H293.683" stroke="#43434E"/>
<path d="M293.683 102.5H309.683" stroke="#43434E"/>
<rect width="18" height="16" transform="translate(309.683 94.5)" fill="#1F1F25"/>
<path d="M314.695 106.5V99.2168H314.601L312.451 100.775V99.6621L314.701 98.0449H315.75V106.5H314.695ZM321.023 106.699C319.154 106.699 318.041 104.994 318.041 102.275V102.264C318.041 99.5449 319.154 97.8457 321.023 97.8457C322.892 97.8457 324.017 99.5449 324.017 102.264V102.275C324.017 104.994 322.892 106.699 321.023 106.699ZM321.023 105.779C322.236 105.779 322.957 104.432 322.957 102.275V102.264C322.957 100.107 322.236 98.7715 321.023 98.7715C319.81 98.7715 319.101 100.107 319.101 102.264V102.275C319.101 104.432 319.81 105.779 321.023 105.779Z" fill="#9D9DA5"/>
<path d="M327.683 102.5H335" stroke="#43434E"/>
<path d="M26.4333 102.5H42.4333" stroke="#43434E"/>
<rect width="18" height="16" transform="translate(8.43333 94.5)" fill="#1F1F25"/>
<path d="M14.3201 106.5V99.2168H14.2263L12.0759 100.775V99.6621L14.3259 98.0449H15.3747V106.5H14.3201ZM20.6482 106.699C18.779 106.699 17.6658 104.994 17.6658 102.275V102.264C17.6658 99.5449 18.779 97.8457 20.6482 97.8457C22.5173 97.8457 23.6423 99.5449 23.6423 102.264V102.275C23.6423 104.994 22.5173 106.699 20.6482 106.699ZM20.6482 105.779C21.8611 105.779 22.5818 104.432 22.5818 102.275V102.264C22.5818 100.107 21.8611 98.7715 20.6482 98.7715C19.4353 98.7715 18.7263 100.107 18.7263 102.264V102.275C18.7263 104.432 19.4353 105.779 20.6482 105.779Z" fill="#9D9DA5"/>
<path d="M0 102.5H8.43333" stroke="#43434E"/>
<path d="M42.4333 191H293.683" stroke="#43434E"/>
<path d="M293.683 191H309.683" stroke="#43434E"/>
<rect width="12" height="16" transform="translate(309.683 183)" fill="#1F1F25"/>
<path d="M315.457 195.199C313.588 195.199 312.474 193.494 312.474 190.775V190.764C312.474 188.045 313.588 186.346 315.457 186.346C317.326 186.346 318.451 188.045 318.451 190.764V190.775C318.451 193.494 317.326 195.199 315.457 195.199ZM315.457 194.279C316.67 194.279 317.39 192.932 317.39 190.775V190.764C317.39 188.607 316.67 187.271 315.457 187.271C314.244 187.271 313.535 188.607 313.535 190.764V190.775C313.535 192.932 314.244 194.279 315.457 194.279Z" fill="#9D9DA5"/>
<path d="M321.683 191H335" stroke="#43434E"/>
<path d="M26.4333 191H42.4333" stroke="#43434E"/>
<rect width="12" height="16" transform="translate(14.4333 183)" fill="#1F1F25"/>
<path d="M20.6482 195.199C18.779 195.199 17.6658 193.494 17.6658 190.775V190.764C17.6658 188.045 18.779 186.346 20.6482 186.346C22.5173 186.346 23.6423 188.045 23.6423 190.764V190.775C23.6423 193.494 22.5173 195.199 20.6482 195.199ZM20.6482 194.279C21.8611 194.279 22.5818 192.932 22.5818 190.775V190.764C22.5818 188.607 21.8611 187.271 20.6482 187.271C19.4353 187.271 18.7263 188.607 18.7263 190.764V190.775C18.7263 192.932 19.4353 194.279 20.6482 194.279Z" fill="#9D9DA5"/>
<path d="M0 191H14.4333" stroke="#43434E"/>
<path d="M66.9951 219V210.545H68.2198L71.1143 217.6H71.208L74.1026 210.545H75.3272V219H74.3428V212.543H74.2784L71.6065 219H70.7159L68.044 212.543H67.9795V219H66.9951ZM79.9502 219.111C78.1514 219.111 77.0381 217.869 77.0381 215.848V215.836C77.0381 213.809 78.1514 212.572 79.9502 212.572C81.7491 212.572 82.8623 213.809 82.8623 215.836V215.848C82.8623 217.869 81.7491 219.111 79.9502 219.111ZM79.9502 218.209C81.1455 218.209 81.8194 217.336 81.8194 215.848V215.836C81.8194 214.342 81.1455 213.475 79.9502 213.475C78.7549 213.475 78.0811 214.342 78.0811 215.836V215.848C78.0811 217.336 78.7549 218.209 79.9502 218.209ZM84.4444 219V212.684H85.4639V213.633H85.5576C85.8741 212.965 86.4659 212.572 87.3975 212.572C88.8155 212.572 89.6065 213.41 89.6065 214.91V219H88.5869V215.156C88.5869 214.02 88.1182 213.475 87.1104 213.475C86.1026 213.475 85.4639 214.154 85.4639 215.262V219H84.4444Z" fill="#9D9DA5"/>
<path d="M154.94 219V211.494H152.216V210.545H158.72V211.494H155.995V219H154.94ZM161.456 219.111C160.021 219.111 159.282 218.268 159.282 216.773V212.684H160.302V216.527C160.302 217.664 160.712 218.209 161.72 218.209C162.833 218.209 163.425 217.529 163.425 216.422V212.684H164.444V219H163.425V218.057H163.331C163.021 218.73 162.382 219.111 161.456 219.111ZM168.927 219.111C167.122 219.111 166.032 217.846 166.032 215.865V215.859C166.032 213.908 167.146 212.572 168.862 212.572C170.579 212.572 171.622 213.85 171.622 215.736V216.135H167.075C167.105 217.441 167.825 218.203 168.95 218.203C169.806 218.203 170.333 217.799 170.503 217.418L170.526 217.365H171.546L171.534 217.412C171.317 218.268 170.415 219.111 168.927 219.111ZM168.856 213.48C167.919 213.48 167.204 214.119 167.093 215.32H170.585C170.48 214.072 169.788 213.48 168.856 213.48Z" fill="#9D9DA5"/>
<path d="M235.913 219L233.61 210.545H234.712L236.394 217.418H236.464L238.356 210.545H239.423L241.315 217.418H241.386L243.067 210.545H244.169L241.866 219H240.87L238.925 212.326H238.855L236.909 219H235.913ZM247.638 219.111C245.833 219.111 244.743 217.846 244.743 215.865V215.859C244.743 213.908 245.856 212.572 247.573 212.572C249.29 212.572 250.333 213.85 250.333 215.736V216.135H245.786C245.815 217.441 246.536 218.203 247.661 218.203C248.517 218.203 249.044 217.799 249.214 217.418L249.237 217.365H250.257L250.245 217.412C250.028 218.268 249.126 219.111 247.638 219.111ZM247.567 213.48C246.63 213.48 245.915 214.119 245.804 215.32H249.296C249.19 214.072 248.499 213.48 247.567 213.48ZM254.247 219.111C252.647 219.111 251.599 217.816 251.599 215.848V215.836C251.599 213.855 252.642 212.572 254.247 212.572C255.114 212.572 255.87 213.006 256.216 213.68H256.31V210.176H257.329V219H256.31V217.992H256.216C255.829 218.695 255.126 219.111 254.247 219.111ZM254.481 218.209C255.63 218.209 256.333 217.307 256.333 215.848V215.836C256.333 214.377 255.63 213.475 254.481 213.475C253.327 213.475 252.642 214.365 252.642 215.836V215.848C252.642 217.318 253.327 218.209 254.481 218.209Z" fill="#9D9DA5"/>
<path d="M54.21 177C54.21 175.895 55.1054 175 56.21 175H70.7933C71.8979 175 72.7933 175.895 72.7933 177V192H54.21V177Z" fill="url(#paint0_linear_4_1606)"/>
<path d="M74.7933 148C74.7933 146.895 75.6888 146 76.7933 146H91.3766C92.4812 146 93.3767 146.895 93.3767 148V192H74.7933V148Z" fill="url(#paint1_linear_4_1606)"/>
<path d="M95.3766 115C95.3766 113.895 96.2721 113 97.3766 113H111.96C113.065 113 113.96 113.895 113.96 115V192H95.3766V115Z" fill="url(#paint2_linear_4_1606)"/>
<path d="M137.96 126C137.96 124.895 138.855 124 139.96 124H154.543C155.648 124 156.543 124.895 156.543 126V192H137.96V126Z" fill="url(#paint3_linear_4_1606)"/>
<path d="M158.543 188C158.543 186.895 159.439 186 160.543 186H175.127C176.231 186 177.127 186.895 177.127 188V192H158.543V188Z" fill="url(#paint4_linear_4_1606)"/>
<path d="M179.127 86C179.127 84.8954 180.022 84 181.127 84H195.71C196.815 84 197.71 84.8954 197.71 86V192H179.127V86Z" fill="url(#paint5_linear_4_1606)"/>
<path d="M221.71 160C221.71 158.895 222.605 158 223.71 158H238.293C239.398 158 240.293 158.895 240.293 160V192H221.71V160Z" fill="url(#paint6_linear_4_1606)"/>
<path d="M242.293 2C242.293 0.895434 243.189 0 244.293 0H258.877C259.981 0 260.877 0.895431 260.877 2V192H242.293V2Z" fill="url(#paint7_linear_4_1606)"/>
<path d="M262.877 188C262.877 186.895 263.772 186 264.877 186H279.46C280.565 186 281.46 186.895 281.46 188V192H262.877V188Z" fill="url(#paint8_linear_4_1606)"/>
<path d="M42.21 140.222C42.21 140.222 52.0708 107.35 65.1008 102.922C81.7435 97.2661 80.7612 127.268 93.962 124.202C110.531 120.355 105.953 46.0169 123.561 46C140.891 45.9834 138 75.3699 149.854 124.202C152.064 133.305 162.068 144.173 167.598 146.749C184.158 154.462 186.208 135.885 201.754 136.069C215.339 136.23 219.646 151.359 232.953 156.836C250.253 163.956 277.46 156.836 277.46 156.836" stroke="url(#paint9_linear_4_1606)" stroke-width="2"/>
<path d="M42.21 117.12C42.21 117.12 47.4928 88.4966 60.5229 78.8962C77.1656 66.6341 79.3696 102.51 92.5704 95.8635C109.139 87.5209 100.483 129.948 117.927 132.812C135.183 135.646 138 -23.4852 149.854 82.3879C152.064 102.123 162.068 125.687 167.598 131.271C184.158 147.994 186.208 107.716 201.754 108.116C215.339 108.465 219.646 141.265 232.953 153.139C250.253 168.576 277.46 153.139 277.46 153.139" stroke="#90B0DF" stroke-opacity="0.6" stroke-width="2" stroke-linecap="square" stroke-dasharray="2 2"/>
<rect x="0.5" y="6.5" width="334" height="216" stroke="#09567C"/>
<defs>
<linearGradient id="paint0_linear_4_1606" x1="63.5017" y1="175" x2="63.5017" y2="192" gradientUnits="userSpaceOnUse">
<stop stop-color="#997AFC"/>
<stop offset="1" stop-color="#7F4AFA"/>
</linearGradient>
<linearGradient id="paint1_linear_4_1606" x1="84.085" y1="146" x2="84.085" y2="192" gradientUnits="userSpaceOnUse">
<stop stop-color="#4B92E5"/>
<stop offset="1" stop-color="#3672BB"/>
</linearGradient>
<linearGradient id="paint2_linear_4_1606" x1="104.668" y1="113" x2="104.668" y2="192" gradientUnits="userSpaceOnUse">
<stop stop-color="#DA62C4"/>
<stop offset="1" stop-color="#B1489E"/>
</linearGradient>
<linearGradient id="paint3_linear_4_1606" x1="147.252" y1="124" x2="147.252" y2="192" gradientUnits="userSpaceOnUse">
<stop stop-color="#997AFC"/>
<stop offset="1" stop-color="#7F4AFA"/>
</linearGradient>
<linearGradient id="paint4_linear_4_1606" x1="167.835" y1="186" x2="167.835" y2="192" gradientUnits="userSpaceOnUse">
<stop stop-color="#4B92E5"/>
<stop offset="1" stop-color="#3672BB"/>
</linearGradient>
<linearGradient id="paint5_linear_4_1606" x1="188.418" y1="84" x2="188.418" y2="192" gradientUnits="userSpaceOnUse">
<stop stop-color="#DA62C4"/>
<stop offset="1" stop-color="#B1489E"/>
</linearGradient>
<linearGradient id="paint6_linear_4_1606" x1="231.002" y1="158" x2="231.002" y2="192" gradientUnits="userSpaceOnUse">
<stop stop-color="#997AFC"/>
<stop offset="1" stop-color="#7F4AFA"/>
</linearGradient>
<linearGradient id="paint7_linear_4_1606" x1="251.585" y1="0" x2="251.585" y2="192" gradientUnits="userSpaceOnUse">
<stop stop-color="#4B92E5"/>
<stop offset="1" stop-color="#3672BB"/>
</linearGradient>
<linearGradient id="paint8_linear_4_1606" x1="272.168" y1="186" x2="272.168" y2="192" gradientUnits="userSpaceOnUse">
<stop stop-color="#DA62C4"/>
<stop offset="1" stop-color="#B1489E"/>
</linearGradient>
<linearGradient id="paint9_linear_4_1606" x1="159.835" y1="46" x2="159.835" y2="160" gradientUnits="userSpaceOnUse">
<stop stop-color="#DA62C4"/>
<stop offset="0.0001" stop-color="#DF8B55"/>
<stop offset="1" stop-color="#B66E3F"/>
</linearGradient>
</defs>
</svg>
