<svg width="672" height="458" viewBox="0 0 672 458" fill="none" xmlns="http://www.w3.org/2000/svg">
<rect y="69" width="672" height="389" fill="black"/>
<path d="M26.1136 22.2727V23.4091H21.4091V22.2727H26.1136ZM22.8182 31V21.0682C22.8182 20.5682 22.9356 20.1515 23.1705 19.8182C23.4053 19.4848 23.7102 19.2348 24.0852 19.0682C24.4602 18.9015 24.8561 18.8182 25.2727 18.8182C25.6023 18.8182 25.8712 18.8447 26.0795 18.8977C26.2879 18.9508 26.4432 19 26.5455 19.0455L26.1591 20.2045C26.0909 20.1818 25.9962 20.1534 25.875 20.1193C25.7576 20.0852 25.6023 20.0682 25.4091 20.0682C24.9659 20.0682 24.6458 20.1799 24.4489 20.4034C24.2557 20.6269 24.1591 20.9545 24.1591 21.3864V31H22.8182ZM28.1747 19.3636H29.8565L33.8111 29.0227H33.9474L37.902 19.3636H39.5838V31H38.2656V22.1591H38.152L34.5156 31H33.2429L29.6065 22.1591H29.4929V31H28.1747V19.3636ZM42.4091 31V19.3636H46.3409C47.25 19.3636 47.9962 19.5189 48.5795 19.8295C49.1629 20.1364 49.5947 20.5587 49.875 21.0966C50.1553 21.6345 50.2955 22.2462 50.2955 22.9318C50.2955 23.6174 50.1553 24.2254 49.875 24.7557C49.5947 25.286 49.1648 25.7027 48.5852 26.0057C48.0057 26.3049 47.2652 26.4545 46.3636 26.4545H43.1818V25.1818H46.3182C46.9394 25.1818 47.4394 25.0909 47.8182 24.9091C48.2008 24.7273 48.4773 24.4697 48.6477 24.1364C48.822 23.7992 48.9091 23.3977 48.9091 22.9318C48.9091 22.4659 48.822 22.0587 48.6477 21.7102C48.4735 21.3617 48.1951 21.0928 47.8125 20.9034C47.4299 20.7102 46.9242 20.6136 46.2955 20.6136H43.8182V31H42.4091ZM47.8864 25.7727L50.75 31H49.1136L46.2955 25.7727H47.8864ZM54.0526 19.3636V31H52.6435V19.3636H54.0526ZM67.7415 22.2727C67.6733 21.697 67.3968 21.25 66.9119 20.9318C66.4271 20.6136 65.8324 20.4545 65.1278 20.4545C64.6127 20.4545 64.1619 20.5379 63.7756 20.7045C63.393 20.8712 63.0938 21.1004 62.8778 21.392C62.6657 21.6837 62.5597 22.0152 62.5597 22.3864C62.5597 22.697 62.6335 22.964 62.7812 23.1875C62.9328 23.4072 63.1259 23.5909 63.3608 23.7386C63.5956 23.8826 63.8419 24.0019 64.0994 24.0966C64.357 24.1875 64.5938 24.2614 64.8097 24.3182L65.9915 24.6364C66.2945 24.7159 66.6316 24.8258 67.0028 24.9659C67.3778 25.1061 67.7358 25.2973 68.0767 25.5398C68.4214 25.7784 68.7055 26.0852 68.929 26.4602C69.1525 26.8352 69.2642 27.2955 69.2642 27.8409C69.2642 28.4697 69.0994 29.0379 68.7699 29.5455C68.4441 30.053 67.9669 30.4564 67.3381 30.7557C66.7131 31.0549 65.9536 31.2045 65.0597 31.2045C64.2263 31.2045 63.5047 31.0701 62.8949 30.8011C62.2888 30.5322 61.8116 30.1572 61.4631 29.6761C61.1184 29.1951 60.9233 28.6364 60.8778 28H62.3324C62.3703 28.4394 62.518 28.803 62.7756 29.0909C63.0369 29.375 63.3665 29.5871 63.7642 29.7273C64.1657 29.8636 64.5975 29.9318 65.0597 29.9318C65.5975 29.9318 66.0805 29.8447 66.5085 29.6705C66.9366 29.4924 67.2756 29.2462 67.5256 28.9318C67.7756 28.6136 67.9006 28.2424 67.9006 27.8182C67.9006 27.4318 67.7926 27.1174 67.5767 26.875C67.3608 26.6326 67.0767 26.4356 66.7244 26.2841C66.3722 26.1326 65.9915 26 65.5824 25.8864L64.1506 25.4773C63.2415 25.2159 62.5218 24.8428 61.9915 24.358C61.4612 23.8731 61.196 23.2386 61.196 22.4545C61.196 21.803 61.3722 21.2348 61.7244 20.75C62.0805 20.2614 62.5578 19.8826 63.1562 19.6136C63.7585 19.3409 64.4309 19.2045 65.1733 19.2045C65.9233 19.2045 66.59 19.339 67.1733 19.608C67.7566 19.8731 68.2188 20.2367 68.5597 20.6989C68.9044 21.161 69.0862 21.6856 69.1051 22.2727H67.7415ZM74.9446 31.1818C74.1264 31.1818 73.4219 30.9886 72.831 30.6023C72.2401 30.2159 71.7855 29.6837 71.4673 29.0057C71.1491 28.3277 70.9901 27.553 70.9901 26.6818C70.9901 25.7955 71.1529 25.0133 71.4787 24.3352C71.8082 23.6534 72.2666 23.1212 72.8537 22.7386C73.4446 22.3523 74.134 22.1591 74.9219 22.1591C75.5355 22.1591 76.0885 22.2727 76.581 22.5C77.0734 22.7273 77.4768 23.0455 77.7912 23.4545C78.1056 23.8636 78.3007 24.3409 78.3764 24.8864H77.0355C76.9332 24.4886 76.706 24.1364 76.3537 23.8295C76.0052 23.5189 75.5355 23.3636 74.9446 23.3636C74.4219 23.3636 73.9635 23.5 73.5696 23.7727C73.1795 24.0417 72.8745 24.4223 72.6548 24.9148C72.4389 25.4034 72.331 25.9773 72.331 26.6364C72.331 27.3106 72.437 27.8977 72.6491 28.3977C72.8651 28.8977 73.1681 29.286 73.5582 29.5625C73.9522 29.839 74.4143 29.9773 74.9446 29.9773C75.2931 29.9773 75.6094 29.9167 75.8935 29.7955C76.1776 29.6742 76.4181 29.5 76.6151 29.2727C76.812 29.0455 76.9522 28.7727 77.0355 28.4545H78.3764C78.3007 28.9697 78.1132 29.4337 77.8139 29.8466C77.5185 30.2557 77.1264 30.5814 76.6378 30.8239C76.1529 31.0625 75.5885 31.1818 74.9446 31.1818ZM82.9048 31.2045C82.3518 31.2045 81.8499 31.1004 81.3991 30.892C80.9484 30.6799 80.5904 30.375 80.3253 29.9773C80.0601 29.5758 79.9276 29.0909 79.9276 28.5227C79.9276 28.0227 80.026 27.6174 80.223 27.3068C80.42 26.9924 80.6832 26.7462 81.0128 26.5682C81.3423 26.3902 81.706 26.2576 82.1037 26.1705C82.5052 26.0795 82.9086 26.0076 83.3139 25.9545C83.8442 25.8864 84.2741 25.8352 84.6037 25.8011C84.937 25.7633 85.1795 25.7008 85.331 25.6136C85.4863 25.5265 85.5639 25.375 85.5639 25.1591V25.1136C85.5639 24.553 85.4105 24.1174 85.1037 23.8068C84.8007 23.4962 84.3404 23.3409 83.723 23.3409C83.0829 23.3409 82.581 23.4811 82.2173 23.7614C81.8537 24.0417 81.598 24.3409 81.4503 24.6591L80.1776 24.2045C80.4048 23.6742 80.7079 23.2614 81.0866 22.9659C81.4692 22.6667 81.8859 22.4583 82.3366 22.3409C82.7912 22.2197 83.2382 22.1591 83.6776 22.1591C83.9579 22.1591 84.2798 22.1932 84.6435 22.2614C85.0109 22.3258 85.3651 22.4602 85.706 22.6648C86.0507 22.8693 86.3366 23.178 86.5639 23.5909C86.7912 24.0038 86.9048 24.5568 86.9048 25.25V31H85.5639V29.8182H85.4957C85.4048 30.0076 85.2533 30.2102 85.0412 30.4261C84.8291 30.642 84.5469 30.8258 84.1946 30.9773C83.8423 31.1288 83.4124 31.2045 82.9048 31.2045ZM83.1094 30C83.6397 30 84.0866 29.8958 84.4503 29.6875C84.8177 29.4792 85.0942 29.2102 85.2798 28.8807C85.4692 28.5511 85.5639 28.2045 85.5639 27.8409V26.6136C85.5071 26.6818 85.3821 26.7443 85.1889 26.8011C84.9995 26.8542 84.7798 26.9015 84.5298 26.9432C84.2836 26.9811 84.0431 27.0152 83.8082 27.0455C83.5772 27.072 83.3897 27.0947 83.2457 27.1136C82.8973 27.1591 82.5715 27.233 82.2685 27.3352C81.9692 27.4337 81.7268 27.5833 81.5412 27.7841C81.3594 27.9811 81.2685 28.25 81.2685 28.5909C81.2685 29.0568 81.4408 29.4091 81.7855 29.6477C82.134 29.8826 82.5753 30 83.1094 30ZM90.6932 25.75V31H89.3523V22.2727H90.6477V23.6364H90.7614C90.9659 23.1932 91.2765 22.8371 91.6932 22.5682C92.1098 22.2955 92.6477 22.1591 93.3068 22.1591C93.8977 22.1591 94.4148 22.2803 94.858 22.5227C95.3011 22.7614 95.6458 23.125 95.892 23.6136C96.1383 24.0985 96.2614 24.7121 96.2614 25.4545V31H94.9205V25.5455C94.9205 24.8598 94.7424 24.3258 94.3864 23.9432C94.0303 23.5568 93.5417 23.3636 92.9205 23.3636C92.4924 23.3636 92.1098 23.4564 91.7727 23.642C91.4394 23.8277 91.1761 24.0985 90.983 24.4545C90.7898 24.8106 90.6932 25.2424 90.6932 25.75Z" fill="white"/>
<rect x="140" y="22" width="381" height="3" rx="1.5" fill="#00BBFF"/>
<path d="M321.634 4.81818V15H320.401V6.1108H320.341L317.855 7.76136V6.50852L320.401 4.81818H321.634ZM327.883 15.1392C327.134 15.1392 326.496 14.9354 325.969 14.5277C325.442 14.1167 325.039 13.5218 324.761 12.7429C324.482 11.9607 324.343 11.0161 324.343 9.90909C324.343 8.80871 324.482 7.86908 324.761 7.0902C325.042 6.308 325.447 5.71141 325.974 5.30043C326.504 4.88613 327.14 4.67898 327.883 4.67898C328.625 4.67898 329.26 4.88613 329.787 5.30043C330.317 5.71141 330.722 6.308 331 7.0902C331.282 7.86908 331.423 8.80871 331.423 9.90909C331.423 11.0161 331.283 11.9607 331.005 12.7429C330.727 13.5218 330.324 14.1167 329.797 14.5277C329.27 14.9354 328.632 15.1392 327.883 15.1392ZM327.883 14.0455C328.625 14.0455 329.202 13.6875 329.613 12.9716C330.024 12.2557 330.229 11.2348 330.229 9.90909C330.229 9.02746 330.135 8.27675 329.946 7.65696C329.76 7.03717 329.492 6.56487 329.141 6.24006C328.793 5.91525 328.373 5.75284 327.883 5.75284C327.147 5.75284 326.572 6.11577 326.158 6.84162C325.743 7.56416 325.536 8.58665 325.536 9.90909C325.536 10.7907 325.629 11.5398 325.815 12.1562C326 12.7727 326.267 13.2417 326.615 13.5632C326.966 13.8847 327.389 14.0455 327.883 14.0455ZM336.633 15.1392C335.884 15.1392 335.246 14.9354 334.719 14.5277C334.192 14.1167 333.789 13.5218 333.511 12.7429C333.232 11.9607 333.093 11.0161 333.093 9.90909C333.093 8.80871 333.232 7.86908 333.511 7.0902C333.792 6.308 334.197 5.71141 334.724 5.30043C335.254 4.88613 335.89 4.67898 336.633 4.67898C337.375 4.67898 338.01 4.88613 338.537 5.30043C339.067 5.71141 339.472 6.308 339.75 7.0902C340.032 7.86908 340.173 8.80871 340.173 9.90909C340.173 11.0161 340.033 11.9607 339.755 12.7429C339.477 13.5218 339.074 14.1167 338.547 14.5277C338.02 14.9354 337.382 15.1392 336.633 15.1392ZM336.633 14.0455C337.375 14.0455 337.952 13.6875 338.363 12.9716C338.774 12.2557 338.979 11.2348 338.979 9.90909C338.979 9.02746 338.885 8.27675 338.696 7.65696C338.51 7.03717 338.242 6.56487 337.891 6.24006C337.543 5.91525 337.123 5.75284 336.633 5.75284C335.897 5.75284 335.322 6.11577 334.908 6.84162C334.493 7.56416 334.286 8.58665 334.286 9.90909C334.286 10.7907 334.379 11.5398 334.565 12.1562C334.75 12.7727 335.017 13.2417 335.365 13.5632C335.716 13.8847 336.139 14.0455 336.633 14.0455ZM347.252 13.0909V12.554C347.252 12.1828 347.328 11.843 347.481 11.5348C347.637 11.2232 347.862 10.9747 348.157 10.7891C348.455 10.6001 348.817 10.5057 349.241 10.5057C349.672 10.5057 350.033 10.6001 350.325 10.7891C350.616 10.9747 350.837 11.2232 350.986 11.5348C351.135 11.843 351.21 12.1828 351.21 12.554V13.0909C351.21 13.4621 351.133 13.8035 350.981 14.1151C350.832 14.4233 350.61 14.6719 350.315 14.8608C350.023 15.0464 349.665 15.1392 349.241 15.1392C348.81 15.1392 348.447 15.0464 348.152 14.8608C347.857 14.6719 347.633 14.4233 347.481 14.1151C347.328 13.8035 347.252 13.4621 347.252 13.0909ZM348.266 12.554V13.0909C348.266 13.3991 348.339 13.6759 348.485 13.9212C348.631 14.1631 348.883 14.2841 349.241 14.2841C349.589 14.2841 349.834 14.1631 349.977 13.9212C350.122 13.6759 350.195 13.3991 350.195 13.0909V12.554C350.195 12.2457 350.126 11.9706 349.987 11.7287C349.847 11.4834 349.599 11.3608 349.241 11.3608C348.893 11.3608 348.643 11.4834 348.49 11.7287C348.341 11.9706 348.266 12.2457 348.266 12.554ZM342.181 7.2642V6.72727C342.181 6.35606 342.257 6.01634 342.41 5.7081C342.566 5.39654 342.791 5.14796 343.086 4.96236C343.384 4.77344 343.746 4.67898 344.17 4.67898C344.601 4.67898 344.962 4.77344 345.254 4.96236C345.545 5.14796 345.766 5.39654 345.915 5.7081C346.064 6.01634 346.138 6.35606 346.138 6.72727V7.2642C346.138 7.63542 346.062 7.9768 345.91 8.28835C345.761 8.59659 345.539 8.84517 345.244 9.03409C344.952 9.2197 344.594 9.3125 344.17 9.3125C343.739 9.3125 343.376 9.2197 343.081 9.03409C342.786 8.84517 342.562 8.59659 342.41 8.28835C342.257 7.9768 342.181 7.63542 342.181 7.2642ZM343.195 6.72727V7.2642C343.195 7.57244 343.268 7.8492 343.414 8.09446C343.56 8.33641 343.812 8.45739 344.17 8.45739C344.518 8.45739 344.763 8.33641 344.906 8.09446C345.051 7.8492 345.124 7.57244 345.124 7.2642V6.72727C345.124 6.41903 345.055 6.14394 344.915 5.90199C344.776 5.65672 344.528 5.53409 344.17 5.53409C343.822 5.53409 343.571 5.65672 343.419 5.90199C343.27 6.14394 343.195 6.41903 343.195 6.72727ZM342.559 15L349.559 4.81818H350.692L343.692 15H342.559Z" fill="white"/>
<mask id="path-5-inside-1_4_13" fill="white">
<path d="M568 17C568 12.5817 571.582 9 576 9H664C668.418 9 672 12.5817 672 17V28C672 32.4183 668.418 36 664 36H576C571.582 36 568 32.4183 568 28V17Z"/>
</mask>
<path d="M568 17C568 12.5817 571.582 9 576 9H664C668.418 9 672 12.5817 672 17V28C672 32.4183 668.418 36 664 36H576C571.582 36 568 32.4183 568 28V17Z" fill="#1B334F"/>
<path d="M576 10H664V8H576V10ZM671 17V28H673V17H671ZM664 35H576V37H664V35ZM569 28V17H567V28H569ZM576 35C572.134 35 569 31.866 569 28H567C567 32.9706 571.029 37 576 37V35ZM671 28C671 31.866 667.866 35 664 35V37C668.971 37 673 32.9706 673 28H671ZM664 10C667.866 10 671 13.134 671 17H673C673 12.0294 668.971 8 664 8V10ZM576 8C571.029 8 567 12.0294 567 17H569C569 13.134 572.134 10 576 10V8Z" fill="white" mask="url(#path-5-inside-1_4_13)"/>
<path d="M600.983 16.8636H603.091V24.4659C603.091 25.2992 602.894 26.0322 602.5 26.6648C602.11 27.2973 601.561 27.7917 600.852 28.1477C600.144 28.5 599.316 28.6761 598.369 28.6761C597.419 28.6761 596.589 28.5 595.881 28.1477C595.172 27.7917 594.623 27.2973 594.233 26.6648C593.843 26.0322 593.648 25.2992 593.648 24.4659V16.8636H595.756V24.2898C595.756 24.7746 595.862 25.2064 596.074 25.5852C596.29 25.964 596.593 26.2614 596.983 26.4773C597.373 26.6894 597.835 26.7955 598.369 26.7955C598.903 26.7955 599.366 26.6894 599.756 26.4773C600.15 26.2614 600.453 25.964 600.665 25.5852C600.877 25.2064 600.983 24.7746 600.983 24.2898V16.8636ZM605.291 31.7727V19.7727H607.314V21.2159H607.433C607.539 21.0038 607.689 20.7784 607.882 20.5398C608.075 20.2973 608.337 20.0909 608.666 19.9205C608.996 19.7462 609.416 19.6591 609.928 19.6591C610.602 19.6591 611.21 19.8314 611.751 20.1761C612.297 20.517 612.729 21.0227 613.047 21.6932C613.369 22.3598 613.53 23.178 613.53 24.1477C613.53 25.1061 613.373 25.9205 613.058 26.5909C612.744 27.2614 612.316 27.7727 611.774 28.125C611.232 28.4773 610.619 28.6534 609.933 28.6534C609.433 28.6534 609.018 28.5701 608.689 28.4034C608.359 28.2367 608.094 28.036 607.893 27.8011C607.696 27.5625 607.543 27.3371 607.433 27.125H607.348V31.7727H605.291ZM607.308 24.1364C607.308 24.7008 607.388 25.1951 607.547 25.6193C607.71 26.0436 607.943 26.375 608.246 26.6136C608.553 26.8485 608.924 26.9659 609.359 26.9659C609.814 26.9659 610.195 26.8447 610.501 26.6023C610.808 26.3561 611.039 26.0208 611.195 25.5966C611.354 25.1686 611.433 24.6818 611.433 24.1364C611.433 23.5947 611.356 23.1136 611.2 22.6932C611.045 22.2727 610.814 21.9432 610.507 21.7045C610.2 21.4659 609.818 21.3466 609.359 21.3466C608.92 21.3466 608.547 21.4621 608.24 21.6932C607.933 21.9242 607.7 22.2481 607.541 22.6648C607.386 23.0814 607.308 23.572 607.308 24.1364ZM617.348 16.8636V28.5H615.291V16.8636H617.348ZM623.27 28.6705C622.418 28.6705 621.679 28.483 621.054 28.108C620.429 27.733 619.944 27.2083 619.599 26.5341C619.259 25.8598 619.088 25.072 619.088 24.1705C619.088 23.2689 619.259 22.4792 619.599 21.8011C619.944 21.1231 620.429 20.5966 621.054 20.2216C621.679 19.8466 622.418 19.6591 623.27 19.6591C624.122 19.6591 624.861 19.8466 625.486 20.2216C626.111 20.5966 626.594 21.1231 626.935 21.8011C627.279 22.4792 627.452 23.2689 627.452 24.1705C627.452 25.072 627.279 25.8598 626.935 26.5341C626.594 27.2083 626.111 27.733 625.486 28.108C624.861 28.483 624.122 28.6705 623.27 28.6705ZM623.281 27.0227C623.743 27.0227 624.13 26.8958 624.44 26.642C624.751 26.3845 624.982 26.0398 625.134 25.608C625.289 25.1761 625.366 24.6951 625.366 24.1648C625.366 23.6307 625.289 23.1477 625.134 22.7159C624.982 22.2803 624.751 21.9337 624.44 21.6761C624.13 21.4186 623.743 21.2898 623.281 21.2898C622.808 21.2898 622.414 21.4186 622.099 21.6761C621.789 21.9337 621.556 22.2803 621.401 22.7159C621.249 23.1477 621.173 23.6307 621.173 24.1648C621.173 24.6951 621.249 25.1761 621.401 25.608C621.556 26.0398 621.789 26.3845 622.099 26.642C622.414 26.8958 622.808 27.0227 623.281 27.0227ZM631.709 28.6761C631.156 28.6761 630.658 28.5777 630.214 28.3807C629.775 28.1799 629.427 27.8845 629.169 27.4943C628.915 27.1042 628.788 26.6231 628.788 26.0511C628.788 25.5587 628.879 25.1515 629.061 24.8295C629.243 24.5076 629.491 24.25 629.805 24.0568C630.12 23.8636 630.474 23.7178 630.868 23.6193C631.266 23.517 631.677 23.4432 632.101 23.3977C632.612 23.3447 633.027 23.2973 633.345 23.2557C633.663 23.2102 633.894 23.142 634.038 23.0511C634.186 22.9564 634.26 22.8106 634.26 22.6136V22.5795C634.26 22.1515 634.133 21.8201 633.879 21.5852C633.625 21.3504 633.26 21.233 632.783 21.233C632.279 21.233 631.879 21.3428 631.584 21.5625C631.292 21.7822 631.095 22.0417 630.993 22.3409L629.072 22.0682C629.224 21.5379 629.474 21.0947 629.822 20.7386C630.171 20.3788 630.597 20.1098 631.101 19.9318C631.605 19.75 632.161 19.6591 632.771 19.6591C633.192 19.6591 633.61 19.7083 634.027 19.8068C634.444 19.9053 634.824 20.0682 635.169 20.2955C635.514 20.5189 635.79 20.8239 635.999 21.2102C636.211 21.5966 636.317 22.0795 636.317 22.6591V28.5H634.339V27.3011H634.271C634.146 27.5436 633.97 27.7708 633.743 27.983C633.519 28.1913 633.237 28.3598 632.896 28.4886C632.559 28.6136 632.163 28.6761 631.709 28.6761ZM632.243 27.1648C632.656 27.1648 633.014 27.0833 633.317 26.9205C633.62 26.7538 633.853 26.5341 634.016 26.2614C634.182 25.9886 634.266 25.6913 634.266 25.3693V24.3409C634.201 24.3939 634.091 24.4432 633.936 24.4886C633.785 24.5341 633.614 24.5739 633.425 24.608C633.235 24.642 633.048 24.6723 632.862 24.6989C632.677 24.7254 632.516 24.7481 632.379 24.767C632.072 24.8087 631.798 24.8769 631.555 24.9716C631.313 25.0663 631.122 25.1989 630.982 25.3693C630.841 25.536 630.771 25.7519 630.771 26.017C630.771 26.3958 630.91 26.6818 631.186 26.875C631.463 27.0682 631.815 27.1648 632.243 27.1648ZM641.624 28.6534C640.938 28.6534 640.324 28.4773 639.783 28.125C639.241 27.7727 638.813 27.2614 638.499 26.5909C638.184 25.9205 638.027 25.1061 638.027 24.1477C638.027 23.178 638.186 22.3598 638.504 21.6932C638.826 21.0227 639.26 20.517 639.805 20.1761C640.351 19.8314 640.959 19.6591 641.629 19.6591C642.141 19.6591 642.561 19.7462 642.891 19.9205C643.22 20.0909 643.482 20.2973 643.675 20.5398C643.868 20.7784 644.018 21.0038 644.124 21.2159H644.209V16.8636H646.271V28.5H644.249V27.125H644.124C644.018 27.3371 643.864 27.5625 643.663 27.8011C643.463 28.036 643.197 28.2367 642.868 28.4034C642.538 28.5701 642.124 28.6534 641.624 28.6534ZM642.197 26.9659C642.633 26.9659 643.004 26.8485 643.311 26.6136C643.618 26.375 643.851 26.0436 644.01 25.6193C644.169 25.1951 644.249 24.7008 644.249 24.1364C644.249 23.572 644.169 23.0814 644.01 22.6648C643.855 22.2481 643.624 21.9242 643.317 21.6932C643.014 21.4621 642.641 21.3466 642.197 21.3466C641.739 21.3466 641.357 21.4659 641.05 21.7045C640.743 21.9432 640.512 22.2727 640.357 22.6932C640.201 23.1136 640.124 23.5947 640.124 24.1364C640.124 24.6818 640.201 25.1686 640.357 25.5966C640.516 26.0208 640.749 26.3561 641.055 26.6023C641.366 26.8447 641.747 26.9659 642.197 26.9659Z" fill="#FFFDFD"/>
<rect x="0.5" y="10.5" width="115" height="29" stroke="#09567C"/>
</svg>
