<svg width="335" height="162" viewBox="0 0 335 162" fill="none" xmlns="http://www.w3.org/2000/svg">
<rect x="0.5" y="0.5" width="334" height="161" fill="#010D2D"/>
<rect x="0.5" y="0.5" width="334" height="161" stroke="#09567C"/>
<path d="M3.07812 14V5.54492H4.30273L7.19727 12.5996H7.29102L10.1855 5.54492H11.4102V14H10.4258V7.54297H10.3613L7.68945 14H6.79883L4.12695 7.54297H4.0625V14H3.07812ZM16.0332 14.1113C14.2344 14.1113 13.1211 12.8691 13.1211 10.8477V10.8359C13.1211 8.80859 14.2344 7.57227 16.0332 7.57227C17.832 7.57227 18.9453 8.80859 18.9453 10.8359V10.8477C18.9453 12.8691 17.832 14.1113 16.0332 14.1113ZM16.0332 13.209C17.2285 13.209 17.9023 12.3359 17.9023 10.8477V10.8359C17.9023 9.3418 17.2285 8.47461 16.0332 8.47461C14.8379 8.47461 14.1641 9.3418 14.1641 10.8359V10.8477C14.1641 12.3359 14.8379 13.209 16.0332 13.209ZM20.5273 14V7.68359H21.5469V8.63281H21.6406C21.957 7.96484 22.5488 7.57227 23.4805 7.57227C24.8984 7.57227 25.6895 8.41016 25.6895 9.91016V14H24.6699V10.1562C24.6699 9.01953 24.2012 8.47461 23.1934 8.47461C22.1855 8.47461 21.5469 9.1543 21.5469 10.2617V14H20.5273Z" fill="#9D9DA5"/>
<path d="M0 22L42 22C43.1046 22 44 22.8954 44 24V29.6666C44 30.7712 43.1046 31.6667 42 31.6667L0 31.6667L0 22Z" fill="url(#paint0_linear_4_3455)"/>
<path d="M52.9996 29.0435V28.1742L56.8349 22.106H57.4656V23.4526H57.0394L54.1417 28.0379V28.106H59.3065V29.0435H52.9996ZM57.1076 30.8333V28.7793V28.3745V22.106H58.1133V30.8333H57.1076ZM60.6989 29.0435V28.1742L64.5341 22.106H65.1648V23.4526H64.7386L61.8409 28.0379V28.106L67.0057 28.106V29.0435H60.6989ZM64.8068 30.8333V28.7793V28.3745V22.106H65.8125V30.8333H64.8068Z" fill="#9D9DA5"/>
<path d="M0 33.6667L121 33.6667C122.105 33.6667 123 34.5621 123 35.6667V41.3333C123 42.4379 122.105 43.3333 121 43.3333L0 43.3333L0 33.6667Z" fill="#90B0DF" fill-opacity="0.6"/>
<path d="M135.229 33.7727V42.5H134.173V34.8807H134.121L131.991 36.2954V35.2216L134.173 33.7727H135.229ZM137.739 42.5V41.7329L140.62 38.5795C140.958 38.2102 141.237 37.8892 141.455 37.6165C141.674 37.3409 141.836 37.0824 141.941 36.8409C142.049 36.5966 142.103 36.3409 142.103 36.0738C142.103 35.767 142.029 35.5014 141.881 35.277C141.737 35.0525 141.538 34.8792 141.285 34.7571C141.032 34.6349 140.748 34.5738 140.433 34.5738C140.097 34.5738 139.805 34.6435 139.555 34.7827C139.308 34.919 139.116 35.1108 138.979 35.3579C138.846 35.6051 138.779 35.8949 138.779 36.2273H137.773C137.773 35.7159 137.891 35.267 138.127 34.8807C138.363 34.4943 138.684 34.1932 139.09 33.9773C139.499 33.7613 139.958 33.6534 140.467 33.6534C140.978 33.6534 141.431 33.7613 141.826 33.9773C142.221 34.1932 142.531 34.4844 142.755 34.8508C142.979 35.2173 143.092 35.625 143.092 36.0738C143.092 36.3949 143.033 36.7088 142.917 37.0156C142.803 37.3196 142.604 37.6591 142.32 38.0341C142.039 38.4062 141.648 38.8608 141.148 39.3977L139.188 41.4943V41.5625H143.245V42.5H137.739ZM147.954 42.6193C147.391 42.6193 146.89 42.5227 146.45 42.3295C146.012 42.1363 145.664 41.8679 145.406 41.5241C145.15 41.1775 145.011 40.7756 144.988 40.3182H146.062C146.085 40.5994 146.181 40.8423 146.352 41.0469C146.522 41.2486 146.745 41.4048 147.021 41.5156C147.296 41.6264 147.602 41.6818 147.937 41.6818C148.312 41.6818 148.644 41.6165 148.934 41.4858C149.224 41.3551 149.451 41.1733 149.616 40.9403C149.781 40.7074 149.863 40.4375 149.863 40.1307C149.863 39.8096 149.783 39.527 149.624 39.2827C149.465 39.0355 149.232 38.8423 148.925 38.7031C148.619 38.5639 148.244 38.4943 147.8 38.4943H147.102V37.5568H147.8C148.147 37.5568 148.451 37.4943 148.712 37.3693C148.977 37.2443 149.183 37.0682 149.33 36.8409C149.481 36.6136 149.556 36.3466 149.556 36.0398C149.556 35.7443 149.491 35.4872 149.36 35.2685C149.229 35.0497 149.045 34.8792 148.806 34.7571C148.57 34.6349 148.292 34.5738 147.971 34.5738C147.67 34.5738 147.386 34.6292 147.119 34.74C146.854 34.848 146.638 35.0057 146.471 35.2131C146.303 35.4176 146.212 35.6648 146.198 35.9545H145.175C145.192 35.4971 145.33 35.0966 145.589 34.7528C145.847 34.4062 146.185 34.1363 146.603 33.9432C147.023 33.75 147.485 33.6534 147.988 33.6534C148.528 33.6534 148.991 33.7628 149.377 33.9815C149.763 34.1974 150.06 34.4829 150.268 34.8381C150.475 35.1932 150.579 35.5767 150.579 35.9886C150.579 36.4801 150.45 36.8991 150.191 37.2457C149.935 37.5923 149.587 37.8324 149.147 37.9659V38.0341C149.698 38.125 150.129 38.3594 150.438 38.7372C150.748 39.1122 150.903 39.5767 150.903 40.1307C150.903 40.6051 150.773 41.0312 150.515 41.4091C150.259 41.7841 149.91 42.0795 149.467 42.2954C149.023 42.5113 148.519 42.6193 147.954 42.6193Z" fill="#9D9DA5"/>
<path d="M5.27539 73.3333V65.8275H2.55078V64.8783H9.05469V65.8275H6.33008V73.3333H5.27539ZM11.791 73.4447C10.3555 73.4447 9.61719 72.6009 9.61719 71.1068V67.0169H10.6367V70.8607C10.6367 71.9974 11.0469 72.5423 12.0547 72.5423C13.168 72.5423 13.7598 71.8626 13.7598 70.7552V67.0169H14.7793V73.3333H13.7598V72.39H13.666C13.3555 73.0638 12.7168 73.4447 11.791 73.4447ZM19.2617 73.4447C17.457 73.4447 16.3672 72.179 16.3672 70.1986V70.1927C16.3672 68.2415 17.4805 66.9056 19.1973 66.9056C20.9141 66.9056 21.957 68.1829 21.957 70.0697V70.4681H17.4102C17.4395 71.7747 18.1602 72.5365 19.2852 72.5365C20.1406 72.5365 20.668 72.1322 20.8379 71.7513L20.8613 71.6986H21.8809L21.8691 71.7454C21.6523 72.6009 20.75 73.4447 19.2617 73.4447ZM19.1914 67.8138C18.2539 67.8138 17.5391 68.4525 17.4277 69.6536H20.9199C20.8145 68.4056 20.123 67.8138 19.1914 67.8138Z" fill="#9D9DA5"/>
<path d="M0 81.3333L134 81.3333C135.105 81.3333 136 82.2287 136 83.3333V89C136 90.1045 135.105 91 134 91L0 91L0 81.3333Z" fill="url(#paint1_linear_4_3455)"/>
<path d="M148.118 81.4394V90.1667H147.061V82.5473H147.01L144.879 83.9621V82.8882L147.061 81.4394H148.118ZM153.577 90.286C153.014 90.286 152.513 90.1894 152.073 89.9962C151.635 89.803 151.287 89.5346 151.029 89.1908C150.773 88.8442 150.634 88.4422 150.611 87.9848H151.685C151.708 88.2661 151.804 88.509 151.975 88.7135C152.145 88.9152 152.368 89.0715 152.644 89.1823C152.919 89.2931 153.225 89.3485 153.56 89.3485C153.935 89.3485 154.267 89.2831 154.557 89.1525C154.847 89.0218 155.074 88.84 155.239 88.607C155.404 88.374 155.486 88.1042 155.486 87.7973C155.486 87.4763 155.406 87.1936 155.247 86.9493C155.088 86.7022 154.855 86.509 154.548 86.3698C154.242 86.2306 153.867 86.161 153.423 86.161H152.725V85.2235H153.423C153.77 85.2235 154.074 85.161 154.335 85.036C154.6 84.911 154.806 84.7348 154.953 84.5076C155.104 84.2803 155.179 84.0132 155.179 83.7064C155.179 83.411 155.114 83.1539 154.983 82.9351C154.852 82.7164 154.668 82.5459 154.429 82.4238C154.193 82.3016 153.915 82.2405 153.594 82.2405C153.293 82.2405 153.009 82.2959 152.742 82.4067C152.477 82.5147 152.262 82.6723 152.094 82.8797C151.926 83.0843 151.835 83.3314 151.821 83.6212H150.798C150.816 83.1638 150.953 82.7632 151.212 82.4195C151.47 82.0729 151.808 81.803 152.226 81.6098C152.646 81.4167 153.108 81.3201 153.611 81.3201C154.151 81.3201 154.614 81.4294 155 81.6482C155.387 81.8641 155.683 82.1496 155.891 82.5047C156.098 82.8598 156.202 83.2434 156.202 83.6553C156.202 84.1468 156.073 84.5658 155.814 84.9124C155.558 85.259 155.21 85.499 154.77 85.6326V85.7007C155.321 85.7917 155.752 86.026 156.061 86.4039C156.371 86.7789 156.526 87.2434 156.526 87.7973C156.526 88.2718 156.396 88.6979 156.138 89.0757C155.882 89.4507 155.533 89.7462 155.09 89.9621C154.646 90.178 154.142 90.286 153.577 90.286ZM161.166 90.286C160.808 90.2803 160.45 90.2121 160.093 90.0814C159.735 89.9507 159.408 89.7306 159.112 89.4209C158.817 89.1084 158.58 88.6865 158.401 88.1553C158.222 87.6212 158.132 86.9507 158.132 86.1439C158.132 85.3712 158.205 84.6865 158.35 84.09C158.494 83.4905 158.705 82.9863 158.98 82.5772C159.256 82.1652 159.588 81.8527 159.977 81.6397C160.369 81.4266 160.811 81.3201 161.303 81.3201C161.791 81.3201 162.226 81.4181 162.607 81.6141C162.99 81.8073 163.303 82.0772 163.544 82.4238C163.786 82.7703 163.942 83.1695 164.013 83.6212H162.973C162.877 83.2292 162.689 82.9039 162.411 82.6453C162.132 82.3868 161.763 82.2576 161.303 82.2576C160.627 82.2576 160.094 82.5516 159.705 83.1397C159.318 83.7277 159.124 84.553 159.121 85.6155H159.189C159.348 85.374 159.537 85.1681 159.756 84.9976C159.977 84.8243 160.222 84.6908 160.489 84.5971C160.756 84.5033 161.039 84.4564 161.337 84.4564C161.837 84.4564 162.294 84.5814 162.709 84.8314C163.124 85.0786 163.456 85.4209 163.706 85.8584C163.956 86.2931 164.081 86.7917 164.081 87.3542C164.081 87.8939 163.96 88.3882 163.719 88.8371C163.477 89.2831 163.138 89.6382 162.7 89.9025C162.266 90.1638 161.754 90.2917 161.166 90.286ZM161.166 89.3485C161.524 89.3485 161.845 89.259 162.129 89.08C162.416 88.901 162.642 88.661 162.807 88.3598C162.975 88.0587 163.058 87.7235 163.058 87.3542C163.058 86.9934 162.977 86.6652 162.816 86.3698C162.656 86.0715 162.436 85.8343 162.155 85.6581C161.877 85.482 161.558 85.3939 161.2 85.3939C160.931 85.3939 160.679 85.4479 160.446 85.5559C160.213 85.661 160.009 85.8059 159.833 85.9905C159.659 86.1752 159.523 86.3868 159.423 86.6255C159.324 86.8613 159.274 87.1098 159.274 87.3712C159.274 87.7178 159.355 88.0417 159.517 88.3428C159.682 88.6439 159.906 88.8868 160.191 89.0715C160.477 89.2561 160.803 89.3485 161.166 89.3485Z" fill="#9D9DA5"/>
<path d="M0 93L218 93C219.105 93 220 93.8954 220 95V100.667C220 101.771 219.105 102.667 218 102.667L0 102.667L0 93Z" fill="#90B0DF" fill-opacity="0.6"/>
<path d="M229.388 101.833V101.066L232.268 97.9129C232.607 97.5435 232.885 97.2225 233.104 96.9498C233.322 96.6742 233.484 96.4157 233.589 96.1742C233.697 95.9299 233.751 95.6742 233.751 95.4072C233.751 95.1004 233.678 94.8347 233.53 94.6103C233.385 94.3859 233.186 94.2126 232.933 94.0904C232.68 93.9683 232.396 93.9072 232.081 93.9072C231.746 93.9072 231.453 93.9768 231.203 94.116C230.956 94.2523 230.764 94.4441 230.628 94.6913C230.494 94.9384 230.428 95.2282 230.428 95.5606H229.422C229.422 95.0492 229.54 94.6004 229.776 94.214C230.011 93.8276 230.332 93.5265 230.739 93.3106C231.148 93.0947 231.607 92.9867 232.115 92.9867C232.626 92.9867 233.08 93.0947 233.474 93.3106C233.869 93.5265 234.179 93.8177 234.403 94.1842C234.628 94.5506 234.74 94.9583 234.74 95.4072C234.74 95.7282 234.682 96.0421 234.565 96.3489C234.452 96.6529 234.253 96.9924 233.969 97.3674C233.688 97.7396 233.297 98.1941 232.797 98.731L230.837 100.828V100.896H234.893V101.833H229.388ZM236.653 101.833V101.066L239.534 97.9129C239.872 97.5435 240.151 97.2225 240.369 96.9498C240.588 96.6742 240.75 96.4157 240.855 96.1742C240.963 95.9299 241.017 95.6742 241.017 95.4072C241.017 95.1004 240.943 94.8347 240.795 94.6103C240.651 94.3859 240.452 94.2126 240.199 94.0904C239.946 93.9683 239.662 93.9072 239.347 93.9072C239.011 93.9072 238.719 93.9768 238.469 94.116C238.222 94.2523 238.03 94.4441 237.893 94.6913C237.76 94.9384 237.693 95.2282 237.693 95.5606H236.688C236.688 95.0492 236.805 94.6004 237.041 94.214C237.277 93.8276 237.598 93.5265 238.004 93.3106C238.413 93.0947 238.872 92.9867 239.381 92.9867C239.892 92.9867 240.345 93.0947 240.74 93.3106C241.135 93.5265 241.445 93.8177 241.669 94.1842C241.893 94.5506 242.006 94.9583 242.006 95.4072C242.006 95.7282 241.947 96.0421 241.831 96.3489C241.717 96.6529 241.518 96.9924 241.234 97.3674C240.953 97.7396 240.562 98.1941 240.062 98.731L238.102 100.828V100.896H242.159V101.833H236.653ZM246.766 101.953C246.124 101.953 245.577 101.778 245.125 101.428C244.673 101.076 244.328 100.566 244.089 99.8987C243.851 99.2282 243.732 98.4185 243.732 97.4697C243.732 96.5265 243.851 95.7211 244.089 95.0535C244.331 94.383 244.678 93.8717 245.129 93.5194C245.584 93.1643 246.129 92.9867 246.766 92.9867C247.402 92.9867 247.946 93.1643 248.398 93.5194C248.852 93.8717 249.199 94.383 249.438 95.0535C249.679 95.7211 249.8 96.5265 249.8 97.4697C249.8 98.4185 249.68 99.2282 249.442 99.8987C249.203 100.566 248.858 101.076 248.406 101.428C247.955 101.778 247.408 101.953 246.766 101.953ZM246.766 101.015C247.402 101.015 247.896 100.708 248.249 100.095C248.601 99.481 248.777 98.606 248.777 97.4697C248.777 96.714 248.696 96.0705 248.534 95.5393C248.375 95.008 248.145 94.6032 247.844 94.3248C247.545 94.0464 247.186 93.9072 246.766 93.9072C246.135 93.9072 245.642 94.2183 245.287 94.8404C244.932 95.4597 244.754 96.3362 244.754 97.4697C244.754 98.2254 244.834 98.8674 244.993 99.3958C245.152 99.9242 245.381 100.326 245.679 100.602C245.98 100.877 246.342 101.015 246.766 101.015Z" fill="#9D9DA5"/>
<path d="M4.83008 132.667L2.52734 124.212H3.62891L5.31055 131.085H5.38086L7.27344 124.212H8.33984L10.2324 131.085H10.3027L11.9844 124.212H13.0859L10.7832 132.667H9.78711L7.8418 125.993H7.77148L5.82617 132.667H4.83008ZM16.5547 132.778C14.75 132.778 13.6602 131.512 13.6602 129.532V129.526C13.6602 127.575 14.7734 126.239 16.4902 126.239C18.207 126.239 19.25 127.516 19.25 129.403V129.801H14.7031C14.7324 131.108 15.4531 131.87 16.5781 131.87C17.4336 131.87 17.9609 131.466 18.1309 131.085L18.1543 131.032H19.1738L19.1621 131.079C18.9453 131.934 18.043 132.778 16.5547 132.778ZM16.4844 127.147C15.5469 127.147 14.832 127.786 14.7207 128.987H18.2129C18.1074 127.739 17.416 127.147 16.4844 127.147ZM23.1641 132.778C21.5645 132.778 20.5156 131.483 20.5156 129.514V129.503C20.5156 127.522 21.5586 126.239 23.1641 126.239C24.0312 126.239 24.7871 126.673 25.1328 127.346H25.2266V123.842H26.2461V132.667H25.2266V131.659H25.1328C24.7461 132.362 24.043 132.778 23.1641 132.778ZM23.3984 131.876C24.5469 131.876 25.25 130.973 25.25 129.514V129.503C25.25 128.044 24.5469 127.141 23.3984 127.141C22.2441 127.141 21.5586 128.032 21.5586 129.503V129.514C21.5586 130.985 22.2441 131.876 23.3984 131.876Z" fill="#9D9DA5"/>
<path d="M0 140.667L246 140.667C247.105 140.667 248 141.562 248 142.667V148.333C248 149.438 247.105 150.333 246 150.333L0 150.333L0 140.667Z" fill="url(#paint2_linear_4_3455)"/>
<path d="M257.295 149.5L261.199 141.778V141.71H256.699V140.773H262.29V141.761L258.403 149.5H257.295ZM263.878 149.5V148.733L266.759 145.58C267.097 145.21 267.375 144.889 267.594 144.617C267.813 144.341 267.975 144.082 268.08 143.841C268.188 143.597 268.242 143.341 268.242 143.074C268.242 142.767 268.168 142.501 268.02 142.277C267.875 142.053 267.676 141.879 267.423 141.757C267.171 141.635 266.887 141.574 266.571 141.574C266.236 141.574 265.943 141.643 265.693 141.783C265.446 141.919 265.254 142.111 265.118 142.358C264.985 142.605 264.918 142.895 264.918 143.227H263.912C263.912 142.716 264.03 142.267 264.266 141.881C264.502 141.494 264.823 141.193 265.229 140.977C265.638 140.761 266.097 140.653 266.605 140.653C267.117 140.653 267.57 140.761 267.965 140.977C268.36 141.193 268.669 141.484 268.894 141.851C269.118 142.217 269.23 142.625 269.23 143.074C269.23 143.395 269.172 143.709 269.056 144.016C268.942 144.32 268.743 144.659 268.459 145.034C268.178 145.406 267.787 145.861 267.287 146.398L265.327 148.494V148.563H269.384V149.5H263.878ZM274.093 149.619C273.53 149.619 273.029 149.523 272.588 149.33C272.151 149.136 271.803 148.868 271.544 148.524C271.289 148.178 271.149 147.776 271.127 147.318H272.2C272.223 147.599 272.32 147.842 272.49 148.047C272.661 148.249 272.884 148.405 273.159 148.516C273.435 148.626 273.74 148.682 274.075 148.682C274.45 148.682 274.783 148.617 275.073 148.486C275.362 148.355 275.59 148.173 275.754 147.94C275.919 147.707 276.002 147.438 276.002 147.131C276.002 146.81 275.922 146.527 275.763 146.283C275.604 146.036 275.371 145.842 275.064 145.703C274.757 145.564 274.382 145.494 273.939 145.494H273.24V144.557H273.939C274.286 144.557 274.59 144.494 274.851 144.369C275.115 144.244 275.321 144.068 275.469 143.841C275.619 143.614 275.695 143.347 275.695 143.04C275.695 142.744 275.629 142.487 275.499 142.268C275.368 142.05 275.183 141.879 274.945 141.757C274.709 141.635 274.431 141.574 274.11 141.574C273.808 141.574 273.524 141.629 273.257 141.74C272.993 141.848 272.777 142.006 272.61 142.213C272.442 142.418 272.351 142.665 272.337 142.955H271.314C271.331 142.497 271.469 142.097 271.727 141.753C271.986 141.406 272.324 141.136 272.742 140.943C273.162 140.75 273.624 140.653 274.127 140.653C274.666 140.653 275.129 140.763 275.516 140.982C275.902 141.197 276.199 141.483 276.406 141.838C276.614 142.193 276.718 142.577 276.718 142.989C276.718 143.48 276.588 143.899 276.33 144.246C276.074 144.592 275.726 144.832 275.286 144.966V145.034C275.837 145.125 276.267 145.359 276.577 145.737C276.887 146.112 277.041 146.577 277.041 147.131C277.041 147.605 276.912 148.031 276.654 148.409C276.398 148.784 276.048 149.08 275.605 149.295C275.162 149.511 274.658 149.619 274.093 149.619Z" fill="#9D9DA5"/>
<path d="M0 152.333H32C33.1046 152.333 34 153.229 34 154.333V160C34 161.105 33.1046 162 32 162H0L0 152.333Z" fill="#90B0DF" fill-opacity="0.6"/>
<path d="M46.1824 161.286C45.6199 161.286 45.1184 161.189 44.6781 160.996C44.2406 160.803 43.8926 160.535 43.6341 160.191C43.3784 159.844 43.2392 159.442 43.2164 158.985H44.2903C44.313 159.266 44.4096 159.509 44.5801 159.714C44.7505 159.915 44.9735 160.072 45.2491 160.182C45.5247 160.293 45.8301 160.349 46.1653 160.349C46.5403 160.349 46.8727 160.283 47.1625 160.152C47.4522 160.022 47.6795 159.84 47.8443 159.607C48.0091 159.374 48.0914 159.104 48.0914 158.797C48.0914 158.476 48.0119 158.194 47.8528 157.949C47.6937 157.702 47.4608 157.509 47.1539 157.37C46.8471 157.231 46.4721 157.161 46.0289 157.161H45.3301V156.224H46.0289C46.3755 156.224 46.6795 156.161 46.9409 156.036C47.2051 155.911 47.411 155.735 47.5588 155.508C47.7093 155.28 47.7846 155.013 47.7846 154.706C47.7846 154.411 47.7193 154.154 47.5886 153.935C47.4579 153.716 47.2733 153.546 47.0346 153.424C46.7988 153.302 46.5204 153.241 46.1994 153.241C45.8983 153.241 45.6142 153.296 45.3471 153.407C45.0829 153.515 44.867 153.672 44.6994 153.88C44.5318 154.084 44.4409 154.331 44.4267 154.621H43.4039C43.421 154.164 43.5588 153.763 43.8173 153.42C44.0758 153.073 44.4139 152.803 44.8315 152.61C45.252 152.417 45.7136 152.32 46.2164 152.32C46.7562 152.32 47.2193 152.429 47.6056 152.648C47.992 152.864 48.2889 153.15 48.4963 153.505C48.7037 153.86 48.8074 154.243 48.8074 154.655C48.8074 155.147 48.6781 155.566 48.4196 155.912C48.1639 156.259 47.8159 156.499 47.3755 156.633V156.701C47.9267 156.792 48.3571 157.026 48.6667 157.404C48.9764 157.779 49.1312 158.243 49.1312 158.797C49.1312 159.272 49.002 159.698 48.7434 160.076C48.4877 160.451 48.1383 160.746 47.6951 160.962C47.252 161.178 46.7477 161.286 46.1824 161.286ZM50.6696 159.377V158.508L54.5048 152.439H55.1355V153.786H54.7093L51.8116 158.371V158.439H56.9764V159.377H50.6696ZM54.7775 161.167V159.113V158.708V152.439H55.7832V161.167H54.7775Z" fill="#9D9DA5"/>
<defs>
<linearGradient id="paint0_linear_4_3455" x1="22" y1="22" x2="22" y2="31.6667" gradientUnits="userSpaceOnUse">
<stop stop-color="#3AA4F6"/>
<stop offset="1" stop-color="#986BFF"/>
</linearGradient>
<linearGradient id="paint1_linear_4_3455" x1="68" y1="81.3333" x2="68" y2="91" gradientUnits="userSpaceOnUse">
<stop stop-color="#3AA4F6"/>
<stop offset="1" stop-color="#986BFF"/>
</linearGradient>
<linearGradient id="paint2_linear_4_3455" x1="124" y1="140.667" x2="124" y2="150.333" gradientUnits="userSpaceOnUse">
<stop stop-color="#3AA4F6"/>
<stop offset="1" stop-color="#986BFF"/>
</linearGradient>
</defs>
</svg>
