<svg width="335" height="171" viewBox="0 0 335 171" fill="none" xmlns="http://www.w3.org/2000/svg">
<rect width="335" height="171" fill="#010D2D"/>
<path d="M42.4332 8H335" stroke="#43434E"/>
<path d="M26.4333 8H42.4333" stroke="#43434E"/>
<rect width="19" height="16" transform="translate(7.43335)" fill="#1F1F25"/>
<path d="M10.5759 12V11.2734L13.4353 8.17969C14.5134 7.01367 14.8298 6.57422 14.8298 5.83594V5.82422C14.8298 4.93359 14.2263 4.26562 13.2302 4.26562C12.2166 4.26562 11.5427 4.92773 11.5427 5.92383L11.5369 5.93555L10.5291 5.92969L10.5173 5.92383C10.5232 4.42383 11.6833 3.3457 13.3005 3.3457C14.7771 3.3457 15.908 4.34766 15.908 5.71289V5.72461C15.908 6.69141 15.4919 7.39453 13.9626 8.9707L12.0408 10.957V11.0508H16.0486V12H10.5759ZM20.6482 12.1992C18.7791 12.1992 17.6658 10.4941 17.6658 7.77539V7.76367C17.6658 5.04492 18.7791 3.3457 20.6482 3.3457C22.5173 3.3457 23.6423 5.04492 23.6423 7.76367V7.77539C23.6423 10.4941 22.5173 12.1992 20.6482 12.1992ZM20.6482 11.2793C21.8611 11.2793 22.5818 9.93164 22.5818 7.77539V7.76367C22.5818 5.60742 21.8611 4.27148 20.6482 4.27148C19.4353 4.27148 18.7263 5.60742 18.7263 7.76367V7.77539C18.7263 9.93164 19.4353 11.2793 20.6482 11.2793Z" fill="#9D9DA5"/>
<path d="M0 8H7.43335" stroke="#43434E"/>
<path d="M42.4332 73.5H335" stroke="#43434E"/>
<path d="M26.4333 73.5H42.4333" stroke="#43434E"/>
<rect width="18" height="16" transform="translate(8.43335 65.5)" fill="#1F1F25"/>
<path d="M14.3201 77.5V70.2168H14.2263L12.0759 71.7754V70.6621L14.3259 69.0449H15.3748V77.5H14.3201ZM20.6482 77.6992C18.7791 77.6992 17.6658 75.9941 17.6658 73.2754V73.2637C17.6658 70.5449 18.7791 68.8457 20.6482 68.8457C22.5173 68.8457 23.6423 70.5449 23.6423 73.2637V73.2754C23.6423 75.9941 22.5173 77.6992 20.6482 77.6992ZM20.6482 76.7793C21.8611 76.7793 22.5818 75.4316 22.5818 73.2754V73.2637C22.5818 71.1074 21.8611 69.7715 20.6482 69.7715C19.4353 69.7715 18.7263 71.1074 18.7263 73.2637V73.2754C18.7263 75.4316 19.4353 76.7793 20.6482 76.7793Z" fill="#9D9DA5"/>
<path d="M0 73.5H8.43335" stroke="#43434E"/>
<path d="M42.4332 139H335" stroke="#43434E"/>
<path d="M26.4333 139H42.4333" stroke="#43434E"/>
<rect width="12" height="16" transform="translate(14.4333 131)" fill="#1F1F25"/>
<path d="M20.6482 143.199C18.7791 143.199 17.6658 141.494 17.6658 138.775V138.764C17.6658 136.045 18.7791 134.346 20.6482 134.346C22.5173 134.346 23.6423 136.045 23.6423 138.764V138.775C23.6423 141.494 22.5173 143.199 20.6482 143.199ZM20.6482 142.279C21.8611 142.279 22.5818 140.932 22.5818 138.775V138.764C22.5818 136.607 21.8611 135.271 20.6482 135.271C19.4353 135.271 18.7263 136.607 18.7263 138.764V138.775C18.7263 140.932 19.4353 142.279 20.6482 142.279Z" fill="#9D9DA5"/>
<path d="M0 139H14.4333" stroke="#43434E"/>
<path d="M30.6607 167V158.545H31.8853L34.7798 165.6H34.8736L37.7681 158.545H38.9927V167H38.0083V160.543H37.9439L35.272 167H34.3814L31.7095 160.543H31.645V167H30.6607ZM43.6157 167.111C41.8169 167.111 40.7036 165.869 40.7036 163.848V163.836C40.7036 161.809 41.8169 160.572 43.6157 160.572C45.4146 160.572 46.5278 161.809 46.5278 163.836V163.848C46.5278 165.869 45.4146 167.111 43.6157 167.111ZM43.6157 166.209C44.8111 166.209 45.4849 165.336 45.4849 163.848V163.836C45.4849 162.342 44.8111 161.475 43.6157 161.475C42.4204 161.475 41.7466 162.342 41.7466 163.836V163.848C41.7466 165.336 42.4204 166.209 43.6157 166.209ZM48.1099 167V160.684H49.1294V161.633H49.2232C49.5396 160.965 50.1314 160.572 51.063 160.572C52.481 160.572 53.272 161.41 53.272 162.91V167H52.2525V163.156C52.2525 162.02 51.7837 161.475 50.7759 161.475C49.7681 161.475 49.1294 162.154 49.1294 163.262V167H48.1099Z" fill="#9D9DA5"/>
<path d="M173.418 167V159.494H170.693V158.545H177.197V159.494H174.473V167H173.418ZM179.934 167.111C178.498 167.111 177.76 166.268 177.76 164.773V160.684H178.779V164.527C178.779 165.664 179.189 166.209 180.197 166.209C181.311 166.209 181.902 165.529 181.902 164.422V160.684H182.922V167H181.902V166.057H181.809C181.498 166.73 180.859 167.111 179.934 167.111ZM187.404 167.111C185.6 167.111 184.51 165.846 184.51 163.865V163.859C184.51 161.908 185.623 160.572 187.34 160.572C189.057 160.572 190.1 161.85 190.1 163.736V164.135H185.553C185.582 165.441 186.303 166.203 187.428 166.203C188.283 166.203 188.811 165.799 188.98 165.418L189.004 165.365H190.023L190.012 165.412C189.795 166.268 188.893 167.111 187.404 167.111ZM187.334 161.48C186.396 161.48 185.682 162.119 185.57 163.32H189.062C188.957 162.072 188.266 161.48 187.334 161.48Z" fill="#9D9DA5"/>
<path d="M309.203 167L306.9 158.545H308.001L309.683 165.418H309.753L311.646 158.545H312.712L314.605 165.418H314.675L316.357 158.545H317.458L315.156 167H314.16L312.214 160.326H312.144L310.199 167H309.203ZM320.927 167.111C319.123 167.111 318.033 165.846 318.033 163.865V163.859C318.033 161.908 319.146 160.572 320.863 160.572C322.58 160.572 323.623 161.85 323.623 163.736V164.135H319.076C319.105 165.441 319.826 166.203 320.951 166.203C321.806 166.203 322.333 165.799 322.503 165.418L322.527 165.365H323.546L323.535 165.412C323.318 166.268 322.416 167.111 320.927 167.111ZM320.857 161.48C319.919 161.48 319.205 162.119 319.093 163.32H322.585C322.48 162.072 321.789 161.48 320.857 161.48ZM327.537 167.111C325.937 167.111 324.888 165.816 324.888 163.848V163.836C324.888 161.855 325.931 160.572 327.537 160.572C328.404 160.572 329.16 161.006 329.505 161.68H329.599V158.176H330.619V167H329.599V165.992H329.505C329.119 166.695 328.416 167.111 327.537 167.111ZM327.771 166.209C328.919 166.209 329.623 165.307 329.623 163.848V163.836C329.623 162.377 328.919 161.475 327.771 161.475C326.617 161.475 325.931 162.365 325.931 163.836V163.848C325.931 165.318 326.617 166.209 327.771 166.209Z" fill="#9D9DA5"/>
<path opacity="0.1" fill-rule="evenodd" clip-rule="evenodd" d="M42.0793 19.1267C44.2331 18.3606 49.3531 23.4307 52.6023 49.8393C56.5918 82.2651 60.7595 82.6382 63.0056 82.8392C63.0461 82.8429 63.086 82.8464 63.1253 82.8501C63.5136 82.8868 63.9814 82.8849 64.5126 82.8827C67.0121 82.8726 70.9173 82.8568 74.5713 86.8198C77.0623 89.5214 80.5452 89.5815 83.7079 89.6361C86.1708 89.6786 88.4395 89.7178 89.8943 90.9984C90.7736 91.7723 91.7046 93.19 92.7659 94.8061C95.7157 99.2977 99.6725 105.323 106.325 103.325C110.858 101.964 113.444 96.9833 115.848 92.3521C118.242 87.7412 120.456 83.4769 124.232 83.4769C131.802 83.4769 133.463 79.9251 135.125 71.568C135.37 70.3316 135.661 68.565 136.007 66.4586C138 54.3266 141.844 30.9269 149.709 32.7071C154.67 33.8299 157.285 57.3398 159.731 79.3365C160.579 86.9586 161.406 94.399 162.304 100.663C160.698 95.383 159.713 88.5303 158.738 81.7448C156.787 68.1622 154.874 54.8489 148.091 54.9545C141.231 55.0614 139.113 66.7702 137 78.4482C134.968 89.6813 132.941 100.886 126.704 101.708C120.594 102.514 119.29 106.609 117.93 110.879C116.459 115.5 114.922 120.326 107.161 121.416C99.3531 122.512 98.0467 120.399 96.127 117.293C94.375 114.459 92.1122 110.799 83.9308 107.998C79.3347 106.424 75.2287 106.357 71.6306 106.298C61.8059 106.138 55.7681 106.039 53.8789 75.501C51.8139 42.1235 45.1521 31.2632 42.0793 30.0052V19.1267ZM319 131.27V112.518C312.629 112.518 310.838 92.934 308.587 68.3064C308.49 67.2436 308.392 66.1715 308.292 65.0911C305.892 38.975 302.2 31.2446 293.708 30.4089C289.717 30.0161 287.764 25.2392 285.705 20.1991C283.382 14.5151 280.922 8.4964 275.247 8.05346C269.814 7.62943 267.85 9.78719 265.45 12.4253C263.119 14.9866 260.377 18.0008 253.647 19.5446C246.796 21.1162 245.562 43.0235 244.336 64.8169C243.116 86.4798 241.904 108.03 235.185 109.384C228.063 110.82 225.375 97.7842 222.762 85.1103C220.43 73.8018 218.157 62.781 212.847 62.584C206.893 62.3631 203.881 77.1505 201.081 90.8915C198.586 103.141 196.26 114.559 192.17 113.772C185.229 112.435 180.54 115.722 179.063 117.532C178.926 117.618 178.768 117.707 178.591 117.797C179.487 119.412 180.252 121.128 180.994 122.794C183.476 128.36 185.714 133.381 191.786 132.318C197.648 131.293 199.672 118.629 201.678 106.08C203.772 92.9757 205.847 79.9973 212.251 80.5328C218.509 81.0561 220.725 92.7601 222.934 104.43C225.15 116.137 227.359 127.81 233.638 128.125C239.701 128.429 241.754 107.205 243.884 85.1811C246.158 61.6671 248.521 37.2419 255.946 37.1336C263.395 37.025 265.155 33.9914 266.787 31.1795C268.305 28.5627 269.713 26.1379 275.489 26.4411C282.206 26.7936 284.521 32.5462 286.751 38.0889C288.501 42.4358 290.198 46.6535 293.926 48.0358C294.183 48.131 294.434 48.2232 294.678 48.3132C302.52 51.1953 304.346 51.8663 307.385 80.5328C307.72 83.6969 308.035 86.7625 308.337 89.7147C310.863 114.345 312.579 131.083 319 131.27Z" fill="#69BBD3"/>
<path opacity="0.3" fill-rule="evenodd" clip-rule="evenodd" d="M42.0793 30.0053C45.1521 31.2632 51.8139 42.1235 53.8789 75.501C55.7681 106.039 61.8059 106.138 71.6306 106.298C75.2287 106.357 79.3347 106.424 83.9308 107.998C92.1122 110.799 94.375 114.459 96.127 117.293C98.0467 120.399 99.3531 122.512 107.161 121.416C114.922 120.327 116.459 115.5 117.93 110.879C119.29 106.609 120.594 102.514 126.704 101.708C132.941 100.886 134.968 89.6813 137 78.4482C139.113 66.7702 141.231 55.0614 148.091 54.9545C154.874 54.8489 156.787 68.1623 158.738 81.7448C160.659 95.1133 162.617 108.743 169.293 110.095C175.932 111.439 178.579 117.375 180.994 122.794C183.467 128.34 185.698 133.344 191.72 132.33C190.549 134.017 189.254 135.024 187.74 135.024C184.819 135.024 182.875 133.12 180.755 131.043C178.213 128.554 175.419 125.816 170.386 125.816C163.497 125.816 161.401 112.102 159.297 98.3409C157.163 84.3816 155.021 70.3742 147.863 70.585C140.808 70.7927 139.664 82.8051 138.542 94.5974C137.403 106.565 136.285 118.305 129.032 117.251C121.05 116.091 118.74 119.304 116.286 122.719C114.313 125.464 112.246 128.34 107.063 129.179C101.072 130.15 98.9995 128.732 96.6571 127.129C94.4526 125.62 92.0087 123.948 85.8328 123.948C77.9696 123.948 74.7492 121.476 72.2201 119.534C70.652 118.331 69.3497 117.331 67.3714 117.251C67.004 117.236 66.6339 117.235 66.2618 117.234C61.399 117.219 56.2168 117.203 52.7869 86.4891C49.8331 60.038 44.4177 53.1462 42.0793 53.0067V30.0053ZM313.023 123.034C311.008 115.756 309.81 104.077 308.337 89.7148C308.035 86.7625 307.72 83.6969 307.385 80.5328C304.346 51.8663 302.52 51.1953 294.678 48.3132C294.434 48.2232 294.183 48.131 293.926 48.0358C290.198 46.6535 288.501 42.4358 286.751 38.0889C284.521 32.5462 282.206 26.7936 275.489 26.4411C269.713 26.1379 268.305 28.5627 266.787 31.1795C265.155 33.9914 263.395 37.025 255.946 37.1336C248.521 37.2419 246.158 61.6671 243.884 85.1812C243.872 85.3023 243.86 85.4235 243.849 85.5446C245.861 69.8779 248.946 55.8418 256.97 55.0994C267.294 54.144 268.36 50.3268 269.259 47.1083C269.936 44.6865 270.518 42.6037 274.877 42.3342C280.073 42.013 281.836 47.0058 283.655 52.155C285.392 57.0697 287.178 62.1268 292.046 62.8422C302.016 64.307 303.123 65.1441 307.185 87.1169C308.318 93.2498 309.078 99.2359 309.769 104.679C310.719 112.168 311.539 118.63 313.023 123.034ZM239.956 116.428C238.453 123.651 236.489 128.268 233.638 128.125C227.359 127.81 225.15 116.137 222.934 104.43C220.725 92.7602 218.509 81.0561 212.251 80.5328C205.847 79.9973 203.772 92.9757 201.678 106.08C201.579 106.7 201.48 107.319 201.38 107.938C204.267 101.551 207.97 96.6439 213.586 96.9524C220.641 97.3399 222.575 106.467 224.371 114.939C226.108 123.138 227.716 130.723 233.708 129.179C236.767 128.391 238.616 123.436 239.956 116.428Z" fill="#69BBD3"/>
<path d="M42.0793 19.1446C44.2331 18.3773 49.3531 23.4555 52.6023 49.9066C56.6638 82.9705 60.9099 82.7612 63.1253 82.9705C65.3406 83.1798 70.1406 82.1334 74.5713 86.9465C79.0021 91.7596 86.5712 88.2021 89.8943 91.1318C93.2173 94.0615 97.2788 106.199 106.325 103.478C115.371 100.758 116.663 83.5983 124.232 83.5983C131.802 83.5983 133.463 80.0408 135.125 71.6702C136.786 63.2996 140.478 30.6542 149.709 32.7468C158.94 34.8395 160.048 114.57 167.063 117.709C172.675 120.22 177.401 118.755 179.063 117.709C180.54 115.895 185.229 112.602 192.17 113.942C200.847 115.616 201.586 62.2532 212.847 62.6718C224.109 63.0903 221.709 112.268 235.185 109.547C248.662 106.827 239.985 22.7021 253.647 19.5631C267.308 16.4242 264.539 7.21648 275.247 8.05354C285.954 8.89061 285.216 29.6079 293.708 30.4449C302.2 31.282 305.892 39.0248 308.292 65.1829C310.692 91.3411 312.354 112.686 319 112.686" stroke="#79CCE5" stroke-width="2" stroke-linecap="square"/>
<path d="M42.0793 30.8369C45.1521 32.093 51.8139 42.9371 53.8789 76.265C56.46 117.925 66.7846 102.852 83.9308 108.714C101.077 114.575 92.2274 124.205 107.161 122.112C122.095 120.018 113.983 104.108 126.704 102.433C139.426 100.758 134.632 55.9584 148.091 55.7491C161.55 55.5397 155.834 108.086 169.293 110.807C182.752 113.529 179.802 135.091 191.786 132.998C203.77 130.904 199.714 80.2425 212.251 81.2893C224.788 82.336 221.101 128.183 233.638 128.811C246.175 129.439 241.565 38.164 255.946 37.9547C270.327 37.7453 263.505 26.65 275.489 27.278C287.473 27.9061 285.445 45.7004 293.926 48.8406C302.407 51.9808 304.251 51.7715 307.385 81.2893C310.519 110.807 311.81 131.742 319 131.951" stroke="#286A7B" stroke-width="2" stroke-linecap="square" stroke-dasharray="4 4"/>
<path d="M42.0793 53.4253C44.4177 53.5648 49.8331 60.4566 52.7869 86.9078C56.4792 119.972 62.2022 117.46 67.3714 117.67C72.5406 117.879 73.0944 124.366 85.8328 124.366C98.5711 124.366 95.4327 131.481 107.063 129.598C118.694 127.714 114.633 115.577 129.032 117.67C143.432 119.762 133.648 71.4221 147.863 71.0036C162.078 70.5851 156.509 126.235 170.386 126.235C179.617 126.235 181.318 135.443 187.74 135.443C197.155 135.443 198.078 96.5193 213.586 97.371C227.468 98.1335 221.524 132.737 233.708 129.598C245.893 126.459 238.878 57.1921 256.97 55.518C275.062 53.8439 264.724 43.3806 274.877 42.7528C285.031 42.125 282.077 61.7959 292.046 63.2608C302.016 64.7257 303.123 65.5627 307.185 87.5356C311.246 109.508 310.508 129.598 319 129.598" stroke="#79CCE5" stroke-width="2" stroke-linecap="square"/>
<path opacity="0.02" d="M50.1807 70.3627C47.5293 84.4253 43.675 86.4063 42.0793 85.639V139H319V112.843C305.007 109.705 309.978 15.5344 297.274 15.1167C282.36 14.6264 291.013 118.703 275.547 118.703C268.695 118.703 266.893 93.5911 263.947 76.8499C261.001 60.1087 258.24 57.3883 250.69 56.3419C243.141 55.2956 245.167 42.949 233.199 43.1582C221.231 43.3675 224.729 100.706 211.656 99.032C198.584 97.3579 200.241 35.8339 191.035 34.7876C181.829 33.7413 177.962 81.0352 176.489 88.778C175.016 96.5208 170.965 99.032 166.546 99.032C162.127 99.032 160.654 102.38 158.629 104.473C156.604 106.566 153.474 109.077 147.398 109.077C141.322 109.077 145.372 114.099 128.249 112.843C111.125 111.588 116.833 58.6438 105.602 58.4346C94.3702 58.2253 102.84 99.032 84.7958 99.032C66.7518 99.032 71.9072 23.4873 63.2534 22.2317C54.5997 20.9761 53.4949 52.7844 50.1807 70.3627Z" fill="url(#paint0_linear_4_7692)"/>
<path d="M42.0793 85.639C43.675 86.4064 47.5293 84.4253 50.1807 70.3627C53.4949 52.7844 54.5997 20.9761 63.2534 22.2317C71.9072 23.4873 66.7518 99.032 84.7958 99.032C102.84 99.032 94.3702 58.2253 105.602 58.4346C116.833 58.6438 111.125 111.588 128.249 112.844C145.372 114.099 141.322 109.077 147.398 109.077C153.474 109.077 156.604 106.566 158.629 104.473C160.654 102.38 162.127 99.032 166.546 99.032C170.965 99.032 175.016 96.5208 176.489 88.778C177.962 81.0352 181.829 33.7413 191.035 34.7876C200.241 35.8339 198.584 97.3579 211.656 99.032C224.729 100.706 221.231 43.3675 233.199 43.1582C245.167 42.949 243.141 55.2956 250.69 56.3419C258.24 57.3883 261.001 60.1087 263.947 76.8499C266.893 93.5911 268.695 118.703 275.547 118.703C291.013 118.703 282.36 14.6264 297.274 15.1167C309.978 15.5344 305.007 109.705 319 112.844" stroke="url(#paint1_linear_4_7692)" stroke-width="2" stroke-linecap="square"/>
<defs>
<linearGradient id="paint0_linear_4_7692" x1="180.54" y1="15.115" x2="180.54" y2="139" gradientUnits="userSpaceOnUse">
<stop stop-color="#3AA4F6"/>
<stop offset="1" stop-color="#986BFF"/>
</linearGradient>
<linearGradient id="paint1_linear_4_7692" x1="180.54" y1="15.115" x2="180.54" y2="118.703" gradientUnits="userSpaceOnUse">
<stop stop-color="#3AA4F6"/>
<stop offset="1" stop-color="#986BFF"/>
</linearGradient>
</defs>
</svg>
